<?xml version="1.0" standalone="yes"?>
<svg xmlns="http://www.w3.org/2000/svg" width="500" height="500">
<path style="fill:#ffffff; stroke:none;" d="M0 0L0 229C3.53201 220.602 2.86592 209.059 4.88426 200C9.43002 179.597 15.8198 159.92 24.7809 141C54.7143 77.8009 115.395 26.9735 183 9.11572C198.293 5.07608 214.084 1.0105 230 1C224.049 -1.49716 215.42 0 209 0L162 0L0 0z"/>
<path style="fill:#c3cceb; stroke:none;" d="M230 0C231.248 0.684814 231.548 0.748779 233 1C231.752 0.315155 231.452 0.251221 230 0z"/>
<path style="fill:#8699d6; stroke:none;" d="M233.667 0.333344C233.222 0.777893 234.278 0.722107 234.333 0.666656C234.778 0.222443 233.722 0.277679 233.667 0.333344z"/>
<path style="fill:#415ebf; stroke:none;" d="M235 0C237.613 1.09772 240.164 0.992798 243 1C240.387 -0.0977173 237.835 0.00720215 235 0z"/>
<path style="fill:#082eac; stroke:none;" d="M243 0.424377C226.25 2.61722 209.626 2.72562 193 6.65433C147.516 17.4024 105.153 41.0257 72.0895 74.0895C-22.5845 168.763 -22.6907 331.231 72.0394 425.961C118.259 472.181 181.813 498.689 247 499.946C260.469 500.206 274.62 498.51 288 496.844C361.651 487.676 430.08 438.76 466.573 375C488.557 336.589 499.921 292.174 499.921 248C499.921 138.271 422.1 37.1076 316 9.11572C296.87 4.06879 277.742 1.46909 258 0.985352C252.891 0.860168 248.136 -0.247986 243 0.424377z"/>
<path style="fill:#2849b7; stroke:none;" d="M252 0C255.432 1.44031 259.3 1 263 1C259.568 -0.440308 255.7 0 252 0z"/>
<path style="fill:#7489d0; stroke:none;" d="M263 0C264.248 0.684814 264.548 0.748779 266 1C264.752 0.315186 264.452 0.251221 263 0z"/>
<path style="fill:#b0bce4; stroke:none;" d="M266 0C267.248 0.684845 267.548 0.748779 269 1C267.752 0.315186 267.452 0.251221 266 0z"/>
<path style="fill:#ffffff; stroke:none;" d="M269 0C272.15 1.32175 275.615 0.964111 279 1.42517C286.38 2.43036 293.713 3.66113 301 5.21066C321.15 9.49527 340.379 16.0755 359 24.8889C416.508 52.1081 462.112 103.837 484.424 163C492.151 183.49 498.939 206.943 499 229C501.497 223.049 500 214.42 500 208L500 161L500 0L269 0z"/>
<path style="fill:#c0caea; stroke:none;" d="M220.667 1.33334C220.222 1.77795 221.278 1.72205 221.333 1.66666C221.778 1.22247 220.722 1.27762 220.667 1.33334z"/>
<path style="fill:#8396d5; stroke:none;" d="M222.667 1.33334C222.222 1.77795 223.278 1.72205 223.333 1.66666C223.778 1.22247 222.722 1.27762 222.667 1.33334z"/>
<path style="fill:#4763c1; stroke:none;" d="M224.667 1.33334C224.222 1.77798 225.278 1.72202 225.333 1.66666C225.778 1.22247 224.722 1.27762 224.667 1.33334z"/>
<path style="fill:#3251ba; stroke:none;" d="M272 1C273.248 1.68478 273.548 1.74881 275 2C273.752 1.31516 273.452 1.25122 272 1z"/>
<path style="fill:#8396d5; stroke:none;" d="M275 1C276.248 1.68481 276.548 1.74878 278 2C276.752 1.31519 276.452 1.25122 275 1z"/>
<path style="fill:#dfe4f4; stroke:none;" d="M278.667 1.33334C278.222 1.77768 279.278 1.72229 279.333 1.66666C279.778 1.22223 278.722 1.27783 278.667 1.33334z"/>
<path style="fill:#bdc7e9; stroke:none;" d="M212.667 2.33334C212.222 2.77789 213.278 2.72214 213.333 2.66666C213.778 2.22244 212.722 2.27765 212.667 2.33334z"/>
<path style="fill:#8094d4; stroke:none;" d="M214.667 2.33334C214.222 2.77789 215.278 2.72217 215.333 2.66666C215.778 2.22244 214.722 2.27765 214.667 2.33334z"/>
<path style="fill:#4360c0; stroke:none;" d="M216.667 2.33334C216.222 2.77789 217.278 2.72214 217.333 2.66666C217.778 2.22244 216.722 2.27765 216.667 2.33334z"/>
<path style="fill:#6179ca; stroke:none;" d="M282.667 2.33334C282.222 2.77771 283.278 2.72226 283.333 2.66666C283.778 2.22223 282.722 2.27783 282.667 2.33334z"/>
<path style="fill:#9faedf; stroke:none;" d="M284 2C285.248 2.68481 285.548 2.74878 287 3C285.752 2.31512 285.452 2.25125 284 2z"/>
<path style="fill:#8fa0d9; stroke:none;" d="M207 3C208.248 3.68481 208.548 3.74878 210 4C208.752 3.31516 208.452 3.25122 207 3z"/>
<path style="fill:#667ecc; stroke:none;" d="M289.667 3.33334C289.222 3.77771 290.278 3.72232 290.333 3.66666C290.778 3.22223 289.722 3.27783 289.667 3.33334z"/>
<path style="fill:#b8c3e7; stroke:none;" d="M291.667 3.33334C291.222 3.77768 292.278 3.72235 292.333 3.66666C292.778 3.2222 291.722 3.27786 291.667 3.33334z"/>
<path style="fill:#8d9ed9; stroke:none;" d="M201 4C202.248 4.68478 202.548 4.74878 204 5C202.752 4.31512 202.452 4.25122 201 4z"/>
<path style="fill:#647ccb; stroke:none;" d="M295 4C296.248 4.68484 296.548 4.74878 298 5C296.752 4.31519 296.452 4.25122 295 4z"/>
<path style="fill:#99a9dd; stroke:none;" d="M197 5L198 6L197 5z"/>
<path style="fill:#627aca; stroke:none;" d="M198 5L199 6L198 5M301 5L302 6L301 5z"/>
<path style="fill:#99a9dd; stroke:none;" d="M302 5L303 6L302 5z"/>
<path style="fill:#b5c1e6; stroke:none;" d="M192 6L193 7L192 6z"/>
<path style="fill:#7d91d3; stroke:none;" d="M193 6L194 7L193 6z"/>
<path style="fill:#4a66c2; stroke:none;" d="M305 6L306 7L305 6z"/>
<path style="fill:#8194d5; stroke:none;" d="M306 6L307 7L306 6z"/>
<path style="fill:#bac5e8; stroke:none;" d="M188 7L189 8L188 7z"/>
<path style="fill:#778cd1; stroke:none;" d="M189 7L190 8L189 7z"/>
<path style="fill:#788dd2; stroke:none;" d="M310 7L311 8L310 7z"/>
<path style="fill:#bbc6e8; stroke:none;" d="M311 7L312 8L311 7z"/>
<path style="fill:#8d9ed9; stroke:none;" d="M185 8L186 9L185 8z"/>
<path style="fill:#4a66c2; stroke:none;" d="M186 8L187 9L186 8z"/>
<path style="fill:#4b67c2; stroke:none;" d="M313 8L314 9L313 8z"/>
<path style="fill:#8e9fd9; stroke:none;" d="M314 8L315 9L314 8z"/>
<path style="fill:#9dacde; stroke:none;" d="M181 9L182 10L181 9z"/>
<path style="fill:#5a74c8; stroke:none;" d="M182 9L183 10L182 9z"/>
<path style="fill:#5b74c8; stroke:none;" d="M317 9L318 10L317 9z"/>
<path style="fill:#9eadde; stroke:none;" d="M318 9L319 10L318 9z"/>
<path style="fill:#b2bde5; stroke:none;" d="M177 10L178 11L177 10z"/>
<path style="fill:#7086cf; stroke:none;" d="M178 10L179 11L178 10z"/>
<path style="fill:#7187cf; stroke:none;" d="M321 10L322 11L321 10z"/>
<path style="fill:#b3bfe6; stroke:none;" d="M322 10L323 11L322 10z"/>
<path style="fill:#9eadde; stroke:none;" d="M174 11L175 12L174 11z"/>
<path style="fill:#4b67c2; stroke:none;" d="M175 11L176 12L175 11z"/>
<path style="fill:#516bc4; stroke:none;" d="M324 11L325 12L324 11z"/>
<path style="fill:#a4b2e0; stroke:none;" d="M325 11L326 12L325 11z"/>
<path style="fill:#a3b1e0; stroke:none;" d="M171 12L172 13L171 12z"/>
<path style="fill:#516bc4; stroke:none;" d="M172 12L173 13L172 12M327 12L328 13L327 12z"/>
<path style="fill:#a4b2e0; stroke:none;" d="M328 12L329 13L328 12z"/>
<path style="fill:#a3b1e0; stroke:none;" d="M168 13L169 14L168 13z"/>
<path style="fill:#516bc4; stroke:none;" d="M169 13L170 14L169 13M330 13L331 14L330 13z"/>
<path style="fill:#a4b2e0; stroke:none;" d="M331 13L332 14L331 13z"/>
<path style="fill:#a9b6e2; stroke:none;" d="M165 14L166 15L165 14z"/>
<path style="fill:#5570c6; stroke:none;" d="M166 14L167 15L166 14M333 14L334 15L333 14z"/>
<path style="fill:#aab7e2; stroke:none;" d="M334 14L335 15L334 14z"/>
<path style="fill:#c4cdeb; stroke:none;" d="M162 15L163 16L162 15z"/>
<path style="fill:#637bcb; stroke:none;" d="M163 15L164 16L163 15M336 15L337 16L336 15z"/>
<path style="fill:#c5ceeb; stroke:none;" d="M337 15L338 16L337 15z"/>
<path style="fill:#93a4db; stroke:none;" d="M160 16L161 17L160 16z"/>
<path style="fill:#94a5db; stroke:none;" d="M339 16L340 17L339 16z"/>
<path style="fill:#bec8e9; stroke:none;" d="M157 17L158 18L157 17z"/>
<path style="fill:#5c75c8; stroke:none;" d="M158 17L159 18L158 17z"/>
<path style="fill:#5d76c9; stroke:none;" d="M341 17L342 18L341 17z"/>
<path style="fill:#bfc9ea; stroke:none;" d="M342 17L343 18L342 17z"/>
<path style="fill:#8e9fd9; stroke:none;" d="M155 18L156 19L155 18z"/>
<path style="fill:#8fa0d9; stroke:none;" d="M344 18L345 19L344 18z"/>
<path style="fill:#6079ca; stroke:none;" d="M153 19L154 20L153 19z"/>
<path style="fill:#6179ca; stroke:none;" d="M346 19L347 20L346 19z"/>
<path style="fill:#b2bee5; stroke:none;" d="M150 20L151 21L150 20z"/>
<path style="fill:#4562c1; stroke:none;" d="M151 20L152 21L151 20M348 20L349 21L348 20z"/>
<path style="fill:#b3bfe6; stroke:none;" d="M349 20L350 21L349 20z"/>
<path style="fill:#97a7dc; stroke:none;" d="M148 21L149 22L148 21z"/>
<path style="fill:#98a8dc; stroke:none;" d="M351 21L352 22L351 21z"/>
<path style="fill:#7c90d3; stroke:none;" d="M146 22L147 23L146 22M353 22L354 23L353 22z"/>
<path style="fill:#c9d1ed; stroke:none;" d="M143 23L144 24L143 23z"/>
<path style="fill:#6079ca; stroke:none;" d="M144 23L145 24L144 23z"/>
<path style="fill:#6179ca; stroke:none;" d="M355 23L356 24L355 23z"/>
<path style="fill:#c9d1ed; stroke:none;" d="M141 24L142 25L141 24z"/>
<path style="fill:#4e69c3; stroke:none;" d="M142 24L143 25L142 24M357 24L358 25L357 24z"/>
<path style="fill:#c9d1ed; stroke:none;" d="M358 24L359 25L358 24M139 25L140 26L139 25z"/>
<path style="fill:#4e69c3; stroke:none;" d="M140 25L141 26L140 25M359 25L360 26L359 25z"/>
<path style="fill:#c9d1ed; stroke:none;" d="M360 25L361 26L360 25M137 26L138 27L137 26z"/>
<path style="fill:#4e69c3; stroke:none;" d="M138 26L139 27L138 26M361 26L362 27L361 26z"/>
<path style="fill:#c9d1ed; stroke:none;" d="M362 26L363 27L362 26M135 27L136 28L135 27z"/>
<path style="fill:#4e69c3; stroke:none;" d="M136 27L137 28L136 27M363 27L364 28L363 27M134 28L135 29L134 28z"/>
<path style="fill:#5570c6; stroke:none;" d="M365 28L366 29L365 28z"/>
<path style="fill:#5e77c9; stroke:none;" d="M132 29L133 30L132 29M367 29L368 30L367 29z"/>
<path style="fill:#778cd1; stroke:none;" d="M130 30L131 31L130 30z"/>
<path style="fill:#788dd2; stroke:none;" d="M369 30L370 31L369 30z"/>
<path style="fill:#9aaadd; stroke:none;" d="M128 31L129 32L128 31z"/>
<path style="fill:#9babdd; stroke:none;" d="M371 31L372 32L371 31z"/>
<path style="fill:#b4c0e6; stroke:none;" d="M126 32L127 33L126 32z"/>
<path style="fill:#bdc7e9; stroke:none;" d="M373 32L374 33L373 32z"/>
<path style="fill:#415ebf; stroke:none;" d="M125 33L126 34L125 33z"/>
<path style="fill:#4a66c2; stroke:none;" d="M374 33L375 34L374 33z"/>
<path style="fill:#667ecc; stroke:none;" d="M123 34L124 35L123 34z"/>
<path style="fill:#677ecc; stroke:none;" d="M376 34L377 35L376 34z"/>
<path style="fill:#8094d4; stroke:none;" d="M121 35L122 36L121 35z"/>
<path style="fill:#8a9cd8; stroke:none;" d="M378 35L379 36L378 35z"/>
<path style="fill:#c4cdeb; stroke:none;" d="M119 36L120 37L119 36z"/>
<path style="fill:#c1cbea; stroke:none;" d="M380 36L381 37L380 36z"/>
<path style="fill:#6d83ce; stroke:none;" d="M118 37L119 38L118 37z"/>
<path style="fill:#6e84ce; stroke:none;" d="M381 37L382 38L381 37z"/>
<path style="fill:#bbc6e8; stroke:none;" d="M116 38L117 39L116 38z"/>
<path style="fill:#b8c3e7; stroke:none;" d="M383 38L384 39L383 38z"/>
<path style="fill:#637bcb; stroke:none;" d="M115 39L116 40L115 39z"/>
<path style="fill:#647ccb; stroke:none;" d="M384 39L385 40L384 39z"/>
<path style="fill:#b2bde5; stroke:none;" d="M113 40L114 41L113 40z"/>
<path style="fill:#aebae4; stroke:none;" d="M386 40L387 41L386 40z"/>
<path style="fill:#5570c6; stroke:none;" d="M112 41L113 42L112 41z"/>
<path style="fill:#5973c7; stroke:none;" d="M387 41L388 42L387 41z"/>
<path style="fill:#aab7e2; stroke:none;" d="M110 42L111 43L110 42z"/>
<path style="fill:#aebae4; stroke:none;" d="M389 42L390 43L389 42z"/>
<path style="fill:#6980cd; stroke:none;" d="M109 43L110 44L109 43z"/>
<path style="fill:#6b82cd; stroke:none;" d="M390 43L391 44L390 43z"/>
<path style="fill:#c7cfec; stroke:none;" d="M107 44L108 45L107 44M392 44L393 45L392 44z"/>
<path style="fill:#7e92d4; stroke:none;" d="M106 45L107 46L106 45z"/>
<path style="fill:#8194d5; stroke:none;" d="M393 45L394 46L393 45z"/>
<path style="fill:#405ebf; stroke:none;" d="M394 46L395 47L394 46z"/>
<path style="fill:#9eadde; stroke:none;" d="M103 47L104 48L103 47z"/>
<path style="fill:#a2b0e0; stroke:none;" d="M396 47L397 48L396 47z"/>
<path style="fill:#536dc5; stroke:none;" d="M102 48L103 49L102 48M397 48L398 49L397 48z"/>
<path style="fill:#97a7dc; stroke:none;" d="M99 50L100 51L99 50z"/>
<path style="fill:#98a8dc; stroke:none;" d="M400 50L401 51L400 50z"/>
<path style="fill:#5973c7; stroke:none;" d="M98 51L99 52L98 51M401 51L402 52L401 51z"/>
<path style="fill:#aebae4; stroke:none;" d="M95 53L96 54L95 53M404 53L405 54L404 53z"/>
<path style="fill:#7489d0; stroke:none;" d="M94 54L95 55L94 54z"/>
<path style="fill:#748ad0; stroke:none;" d="M405 54L406 55L405 54z"/>
<path style="fill:#4562c1; stroke:none;" d="M93 55L94 56L93 55M406 55L407 56L406 55z"/>
<path style="fill:#c2cbea; stroke:none;" d="M91 56L92 57L91 56z"/>
<path style="fill:#a4b2e0; stroke:none;" d="M90 57L91 58L90 57M409 57L410 58L409 57z"/>
<path style="fill:#7e92d4; stroke:none;" d="M89 58L90 59L89 58z"/>
<path style="fill:#8094d4; stroke:none;" d="M410 58L411 59L410 58z"/>
<path style="fill:#5771c7; stroke:none;" d="M88 59L89 60L88 59z"/>
<path style="fill:#637bcb; stroke:none;" d="M411 59L412 60L411 59z"/>
<path style="fill:#425fc0; stroke:none;" d="M87 60L88 61L87 60M412 60L413 61L412 60z"/>
<path style="fill:#c5ceeb; stroke:none;" d="M84 62L85 63L84 62z"/>
<path style="fill:#b0bce4; stroke:none;" d="M83 63L84 64L83 63M416 63L417 64L416 63z"/>
<path style="fill:#8c9dd8; stroke:none;" d="M82 64L83 65L82 64z"/>
<path style="fill:#96a6dc; stroke:none;" d="M417 64L418 65L417 64z"/>
<path style="fill:#6e84ce; stroke:none;" d="M81 65L82 66L81 65z"/>
<path style="fill:#7c90d3; stroke:none;" d="M418 65L419 66L418 65z"/>
<path style="fill:#6e84ce; stroke:none;" d="M80 66L81 67L80 66M419 66L420 67L419 66z"/>
<path style="fill:#6079ca; stroke:none;" d="M79 67L80 68L79 67M420 67L421 68L420 67z"/>
<path style="fill:#556fc6; stroke:none;" d="M78 68L79 69L78 68M421 68L422 69L421 68z"/>
<path style="fill:#4965c2; stroke:none;" d="M77 69L78 70L77 69M422 69L423 70L422 69z"/>
<path style="fill:#3e5cbe; stroke:none;" d="M76 70L77 71L76 70M423 70L424 71L423 70z"/>
<path style="fill:#6980cd; stroke:none;" d="M247 72C248.248 72.6848 248.548 72.7488 250 73C248.752 72.3152 248.452 72.2512 247 72z"/>
<path style="fill:#d7ddf2; stroke:none;" d="M250.667 72.3333C250.222 72.7779 251.278 72.7221 251.333 72.6667C251.778 72.2224 250.722 72.2777 250.667 72.3333z"/>
<path style="fill:#ffffff; stroke:none;" d="M312 154C306.593 155.965 301.622 158.757 296 160.244C284.511 163.283 272.505 161.091 262 155.726C229.729 139.246 226.754 94.581 255 73C249.779 71.3941 242.988 73.8787 238 75.6952C220.833 81.9473 207.383 96.4194 202.428 114C200.93 119.315 201 124.527 201 130C201 142.021 203.313 152.799 210.105 163C226.73 187.968 261.081 194.986 287 181.218C298.266 175.234 307.073 165.772 312 154z"/>
<path style="fill:#687fcc; stroke:none;" d="M255 72L256 73L255 72z"/>
<path style="fill:#526cc5; stroke:none;" d="M243 73L244 74L243 73z"/>
<path style="fill:#a1afdf; stroke:none;" d="M244 73L245 74L244 73z"/>
<path style="fill:#5872c7; stroke:none;" d="M240 74L241 75L240 74z"/>
<path style="fill:#a9b6e2; stroke:none;" d="M241 74L242 75L241 74z"/>
<path style="fill:#b8c3e7; stroke:none;" d="M252 74L253 75L252 74z"/>
<path style="fill:#425fc0; stroke:none;" d="M237 75L238 76L237 75z"/>
<path style="fill:#a0afdf; stroke:none;" d="M238 75L239 76L238 75z"/>
<path style="fill:#8e9fd9; stroke:none;" d="M251 75L252 76L251 75z"/>
<path style="fill:#798ed2; stroke:none;" d="M235 76L236 77L235 76z"/>
<path style="fill:#96a6dc; stroke:none;" d="M250 76L251 77L250 76z"/>
<path style="fill:#9babdd; stroke:none;" d="M233 77L234 78L233 77z"/>
<path style="fill:#9dacde; stroke:none;" d="M249 77L250 78L249 77z"/>
<path style="fill:#4461c0; stroke:none;" d="M68 78L69 79L68 78z"/>
<path style="fill:#97a7dc; stroke:none;" d="M231 78L232 79L231 78z"/>
<path style="fill:#a5b3e1; stroke:none;" d="M248 78L249 79L248 78z"/>
<path style="fill:#4662c1; stroke:none;" d="M431 78L432 79L431 78z"/>
<path style="fill:#506bc4; stroke:none;" d="M67 79L68 80L67 79z"/>
<path style="fill:#93a4db; stroke:none;" d="M229 79L230 80L229 79z"/>
<path style="fill:#b2bde5; stroke:none;" d="M247 79L248 80L247 79z"/>
<path style="fill:#526cc5; stroke:none;" d="M432 79L433 80L432 79z"/>
<path style="fill:#5c75c8; stroke:none;" d="M66 80L67 81L66 80z"/>
<path style="fill:#4c67c3; stroke:none;" d="M227 80L228 81L227 80z"/>
<path style="fill:#5e77c9; stroke:none;" d="M433 80L434 81L433 80z"/>
<path style="fill:#5c75c8; stroke:none;" d="M65 81L66 82L65 81z"/>
<path style="fill:#a8b5e2; stroke:none;" d="M226 81L227 82L226 81z"/>
<path style="fill:#6d83ce; stroke:none;" d="M434 81L435 82L434 81z"/>
<path style="fill:#7489d0; stroke:none;" d="M64 82L65 83L64 82z"/>
<path style="fill:#556fc6; stroke:none;" d="M224 82L225 83L224 82z"/>
<path style="fill:#4a66c2; stroke:none;" d="M245 82L246 83L245 82z"/>
<path style="fill:#7489d0; stroke:none;" d="M435 82L436 83L435 82z"/>
<path style="fill:#9aaadd; stroke:none;" d="M63 83L64 84L63 83z"/>
<path style="fill:#8799d7; stroke:none;" d="M223 83L224 84L223 83z"/>
<path style="fill:#7b90d3; stroke:none;" d="M244 83L245 84L244 83z"/>
<path style="fill:#9aaadd; stroke:none;" d="M436 83L437 84L436 83z"/>
<path style="fill:#bdc7e9; stroke:none;" d="M62 84L63 85L62 84z"/>
<path style="fill:#bac5e8; stroke:none;" d="M222 84L223 85L222 84z"/>
<path style="fill:#c7cfec; stroke:none;" d="M243 84L244 85L243 84z"/>
<path style="fill:#bcc6e9; stroke:none;" d="M437 84L438 85L437 84z"/>
<path style="fill:#8fa0d9; stroke:none;" d="M242 86L243 87L242 86z"/>
<path style="fill:#415ebf; stroke:none;" d="M218 87L219 88L218 87z"/>
<path style="fill:#4a66c2; stroke:none;" d="M59 88L60 89L59 88z"/>
<path style="fill:#4c67c3; stroke:none;" d="M217 88L218 89L217 88z"/>
<path style="fill:#5872c7; stroke:none;" d="M241 88L242 89L241 88z"/>
<path style="fill:#4b67c2; stroke:none;" d="M440 88L441 89L440 88z"/>
<path style="fill:#647ccb; stroke:none;" d="M58 89L59 90L58 89z"/>
<path style="fill:#5c75c8; stroke:none;" d="M216 89L217 90L216 89z"/>
<path style="fill:#7489d0; stroke:none;" d="M441 89L442 90L441 89z"/>
<path style="fill:#8b9dd8; stroke:none;" d="M57 90L58 91L57 90z"/>
<path style="fill:#4e69c3; stroke:none;" d="M215 90L216 91L215 90z"/>
<path style="fill:#5670c6; stroke:none;" d="M240 90L241 91L240 90z"/>
<path style="fill:#93a3db; stroke:none;" d="M442 90L443 91L442 90z"/>
<path style="fill:#b6c2e7; stroke:none;" d="M56 91L57 92L56 91M443 91L444 92L443 91z"/>
<path style="fill:#677ecc; stroke:none;" d="M239 92L240 93L239 92z"/>
<path style="fill:#5f78c9; stroke:none;" d="M54 94L55 95L54 94z"/>
<path style="fill:#c4cdeb; stroke:none;" d="M212 94L213 95L212 94z"/>
<path style="fill:#8194d5; stroke:none;" d="M238 94L239 95L238 94z"/>
<path style="fill:#647ccb; stroke:none;" d="M445 94L446 95L445 94z"/>
<path style="fill:#93a3db; stroke:none;" d="M53 95L54 96L53 95z"/>
<path style="fill:#7e92d4; stroke:none;" d="M211 95L212 96L211 95z"/>
<path style="fill:#9aaadd; stroke:none;" d="M446 95L447 96L446 95z"/>
<path style="fill:#c3cceb; stroke:none;" d="M52 96L53 97L52 96z"/>
<path style="fill:#8e9fd9; stroke:none;" d="M237 97L238 98L237 97z"/>
<path style="fill:#4461c0; stroke:none;" d="M51 98L52 99L51 98z"/>
<path style="fill:#9cabde; stroke:none;" d="M209 98L210 99L209 98z"/>
<path style="fill:#405ebf; stroke:none;" d="M237 98L238 99L237 98z"/>
<path style="fill:#4461c0; stroke:none;" d="M448 98L449 99L448 98z"/>
<path style="fill:#7489d0; stroke:none;" d="M50 99L51 100L50 99M449 99L450 100L449 99z"/>
<path style="fill:#a8b5e2; stroke:none;" d="M49 100L50 101L49 100z"/>
<path style="fill:#7d91d3; stroke:none;" d="M236 100L236 103C236.696 101.446 236.696 101.554 236 100z"/>
<path style="fill:#a8b5e2; stroke:none;" d="M450 100L451 101L450 100z"/>
<path style="fill:#667ecc; stroke:none;" d="M207 101L208 102L207 101z"/>
<path style="fill:#3e5cbe; stroke:none;" d="M451 102L452 103L451 102z"/>
<path style="fill:#7b90d3; stroke:none;" d="M47 103L48 104L47 103z"/>
<path style="fill:#8598d6; stroke:none;" d="M206 103L207 104L206 103z"/>
<path style="fill:#8396d5; stroke:none;" d="M452 103L453 104L452 103z"/>
<path style="fill:#c9d1ed; stroke:none;" d="M453 104L454 105L453 104z"/>
<path style="fill:#768bd1; stroke:none;" d="M205 105L206 106L205 105z"/>
<path style="fill:#9cabde; stroke:none;" d="M235 105L235 108C235.696 106.446 235.696 106.554 235 105z"/>
<path style="fill:#5c75c8; stroke:none;" d="M45 106L46 107L45 106M454 106L455 107L454 106z"/>
<path style="fill:#a2b0e0; stroke:none;" d="M44 107L45 108L44 107z"/>
<path style="fill:#6980cd; stroke:none;" d="M204 107L205 108L204 107z"/>
<path style="fill:#a2b0e0; stroke:none;" d="M455 107L456 108L455 107z"/>
<path style="fill:#5771c7; stroke:none;" d="M235 108L235 114C235.951 111.715 235.951 110.285 235 108z"/>
<path style="fill:#3e5cbe; stroke:none;" d="M456 109L457 110L456 109z"/>
<path style="fill:#7b90d3; stroke:none;" d="M42 110L43 111L42 110z"/>
<path style="fill:#8b9dd8; stroke:none;" d="M203 110L204 111L203 110z"/>
<path style="fill:#8396d5; stroke:none;" d="M457 110L458 111L457 110z"/>
<path style="fill:#4562c1; stroke:none;" d="M202 112L203 113L202 112z"/>
<path style="fill:#93a3db; stroke:none;" d="M40 113L41 114L40 113z"/>
<path style="fill:#97a7dc; stroke:none;" d="M202 113L203 114L202 113z"/>
<path style="fill:#93a3db; stroke:none;" d="M459 113L460 114L459 113z"/>
<path style="fill:#7c90d3; stroke:none;" d="M235 114L235 117C235.696 115.446 235.696 115.554 235 114z"/>
<path style="fill:#4461c0; stroke:none;" d="M39 115L40 116L39 115z"/>
<path style="fill:#556fc6; stroke:none;" d="M460 115L461 116L460 115z"/>
<path style="fill:#a2b0e0; stroke:none;" d="M38 116L39 117L38 116z"/>
<path style="fill:#5c75c8; stroke:none;" d="M201 116L202 117L201 116z"/>
<path style="fill:#aab7e2; stroke:none;" d="M461 116L462 117L461 116z"/>
<path style="fill:#9babdd; stroke:none;" d="M201 117L202 118L201 117z"/>
<path style="fill:#c8d0ec; stroke:none;" d="M235.333 117.667C235.278 117.722 235.222 118.778 235.667 118.333C235.722 118.278 235.778 117.222 235.333 117.667z"/>
<path style="fill:#647ccb; stroke:none;" d="M37 118L38 119L37 118M462 118L463 119L462 118z"/>
<path style="fill:#c3cceb; stroke:none;" d="M36 119L37 120L36 119z"/>
<path style="fill:#c1cbea; stroke:none;" d="M463 119L464 120L463 119z"/>
<path style="fill:#5670c6; stroke:none;" d="M200.333 120.667C200.278 120.722 200.222 121.778 200.667 121.333C200.722 121.278 200.778 120.222 200.333 120.667z"/>
<path style="fill:#8b9dd8; stroke:none;" d="M35 121L36 122L35 121z"/>
<path style="fill:#7187cf; stroke:none;" d="M236.333 121.667C236.278 121.722 236.222 122.778 236.667 122.333C236.722 122.278 236.778 121.222 236.333 121.667z"/>
<path style="fill:#8b9dd8; stroke:none;" d="M464 121L465 122L464 121z"/>
<path style="fill:#a0afdf; stroke:none;" d="M200.333 122.667C200.278 122.722 200.222 123.778 200.667 123.333C200.722 123.278 200.778 122.222 200.333 122.667z"/>
<path style="fill:#5c75c8; stroke:none;" d="M34 123L35 124L34 123z"/>
<path style="fill:#b1bde5; stroke:none;" d="M236 123L237 124L236 123z"/>
<path style="fill:#6c82ce; stroke:none;" d="M465 123L466 124L465 123z"/>
<path style="fill:#d3daf0; stroke:none;" d="M200 124L200 133C201.256 130.006 201.256 126.994 200 124z"/>
<path style="fill:#c9d1ed; stroke:none;" d="M466 124L467 125L466 124z"/>
<path style="fill:#3e5cbe; stroke:none;" d="M466 125L467 126L466 125z"/>
<path style="fill:#aab7e2; stroke:none;" d="M32 126L33 127L32 126z"/>
<path style="fill:#788dd2; stroke:none;" d="M237 126L238 127L237 126z"/>
<path style="fill:#aab7e2; stroke:none;" d="M467 126L468 127L467 126z"/>
<path style="fill:#8b9dd8; stroke:none;" d="M31 128L32 129L31 128M468 128L469 129L468 128M238 129L239 130L238 129z"/>
<path style="fill:#647ccb; stroke:none;" d="M30 130L31 131L30 130z"/>
<path style="fill:#6c82ce; stroke:none;" d="M469 130L470 131L469 130z"/>
<path style="fill:#526cc5; stroke:none;" d="M239 131L240 132L239 131z"/>
<path style="fill:#556fc6; stroke:none;" d="M29 132L30 133L29 132M470 132L471 133L470 132z"/>
<path style="fill:#c3cceb; stroke:none;" d="M28 133L29 134L28 133z"/>
<path style="fill:#b3bfe6; stroke:none;" d="M200 133L200 137C200.71 135.24 200.71 134.759 200 133z"/>
<path style="fill:#4b67c2; stroke:none;" d="M240 133L241 134L240 133z"/>
<path style="fill:#4562c1; stroke:none;" d="M28 134L29 135L28 134z"/>
<path style="fill:#c7cfec; stroke:none;" d="M240 134L241 135L240 134z"/>
<path style="fill:#4d68c3; stroke:none;" d="M471 134L472 135L471 134z"/>
<path style="fill:#c1cbea; stroke:none;" d="M27 135L28 136L27 135z"/>
<path style="fill:#4a66c2; stroke:none;" d="M241 135L242 136L241 135z"/>
<path style="fill:#c1cbea; stroke:none;" d="M472 135L473 136L472 135z"/>
<path style="fill:#4562c1; stroke:none;" d="M27 136L28 137L27 136M472 136L473 137L472 136z"/>
<path style="fill:#c1cbea; stroke:none;" d="M26 137L27 138L26 137z"/>
<path style="fill:#4f6ac4; stroke:none;" d="M200.333 137.667C200.278 137.722 200.222 138.778 200.667 138.333C200.722 138.278 200.778 137.222 200.333 137.667z"/>
<path style="fill:#7f93d4; stroke:none;" d="M242 137L243 138L242 137z"/>
<path style="fill:#c1cbea; stroke:none;" d="M473 137L474 138L473 137z"/>
<path style="fill:#4562c1; stroke:none;" d="M26 138L27 139L26 138M473 138L474 139L473 138z"/>
<path style="fill:#c1cbea; stroke:none;" d="M25 139L26 140L25 139z"/>
<path style="fill:#c0caea; stroke:none;" d="M243 139L244 140L243 139z"/>
<path style="fill:#c1cbea; stroke:none;" d="M474 139L475 140L474 139z"/>
<path style="fill:#4562c1; stroke:none;" d="M25 140L26 141L25 140z"/>
<path style="fill:#7e92d4; stroke:none;" d="M244 140L245 141L244 140z"/>
<path style="fill:#4562c1; stroke:none;" d="M474 140L475 141L474 140z"/>
<path style="fill:#c1cbea; stroke:none;" d="M24 141L25 142L24 141z"/>
<path style="fill:#415ebf; stroke:none;" d="M245 141L246 142L245 141z"/>
<path style="fill:#c1cbea; stroke:none;" d="M475 141L476 142L475 141z"/>
<path style="fill:#4562c1; stroke:none;" d="M24 142L25 143L24 142z"/>
<path style="fill:#a8b5e2; stroke:none;" d="M201 142L202 143L201 142z"/>
<path style="fill:#4562c1; stroke:none;" d="M475 142L476 143L475 142z"/>
<path style="fill:#c9d1ed; stroke:none;" d="M23 143L24 144L23 143z"/>
<path style="fill:#6a81cd; stroke:none;" d="M201 143L202 144L201 143z"/>
<path style="fill:#c7cfec; stroke:none;" d="M246 143L247 144L246 143z"/>
<path style="fill:#c9d1ed; stroke:none;" d="M476 143L477 144L476 143z"/>
<path style="fill:#5c75c8; stroke:none;" d="M23 144L24 145L23 144z"/>
<path style="fill:#b3bfe6; stroke:none;" d="M247 144L248 145L247 144z"/>
<path style="fill:#5c75c8; stroke:none;" d="M476 144L477 145L476 144z"/>
<path style="fill:#a6b4e1; stroke:none;" d="M248 145L249 146L248 145z"/>
<path style="fill:#7b90d3; stroke:none;" d="M22 146L23 147L22 146z"/>
<path style="fill:#a8b5e2; stroke:none;" d="M202 146L203 147L202 146z"/>
<path style="fill:#8d9ed9; stroke:none;" d="M249 146L250 147L249 146z"/>
<path style="fill:#7b90d3; stroke:none;" d="M477 146L478 147L477 146z"/>
<path style="fill:#6980cd; stroke:none;" d="M202 147L203 148L202 147z"/>
<path style="fill:#93a3db; stroke:none;" d="M250 147L251 148L250 147M21 148L22 149L21 148z"/>
<path style="fill:#a7b4e1; stroke:none;" d="M251 148L252 149L251 148z"/>
<path style="fill:#9aaadd; stroke:none;" d="M478 148L479 149L478 148z"/>
<path style="fill:#b0bce4; stroke:none;" d="M203 149L204 150L203 149z"/>
<path style="fill:#b2bee5; stroke:none;" d="M252 149L253 150L252 149z"/>
<path style="fill:#aab7e2; stroke:none;" d="M20 150L21 151L20 150z"/>
<path style="fill:#536dc5; stroke:none;" d="M203 150L204 151L203 150z"/>
<path style="fill:#b9c4e8; stroke:none;" d="M479 150L480 151L479 150z"/>
<path style="fill:#4360c0; stroke:none;" d="M255 151L256 152L255 151z"/>
<path style="fill:#4562c1; stroke:none;" d="M479 151L480 152L479 151z"/>
<path style="fill:#c9d1ed; stroke:none;" d="M19 152L20 153L19 152z"/>
<path style="fill:#92a2da; stroke:none;" d="M204 152L205 153L204 152z"/>
<path style="fill:#758bd1; stroke:none;" d="M256 152L257 153L256 152z"/>
<path style="fill:#c9d1ed; stroke:none;" d="M480 152L481 153L480 152z"/>
<path style="fill:#5c75c8; stroke:none;" d="M19 153L20 154L19 153z"/>
<path style="fill:#c6cfec; stroke:none;" d="M257 153L258 154L257 153z"/>
<path style="fill:#9eadde; stroke:none;" d="M311.667 153.333C311.222 153.778 312.278 153.722 312.333 153.667C312.778 153.222 311.722 153.278 311.667 153.333z"/>
<path style="fill:#5c75c8; stroke:none;" d="M480 153L481 154L480 153z"/>
<path style="fill:#abb8e3; stroke:none;" d="M205 154L206 155L205 154z"/>
<path style="fill:#a6b4e1; stroke:none;" d="M259 154L260 155L259 154z"/>
<path style="fill:#425fc0; stroke:none;" d="M309 154L310 155L309 154z"/>
<path style="fill:#93a3db; stroke:none;" d="M18 155L19 156L18 155M261 155L262 156L261 155z"/>
<path style="fill:#b2bee5; stroke:none;" d="M308 155L309 156L308 155z"/>
<path style="fill:#bcc6e9; stroke:none;" d="M311 155L312 156L311 155z"/>
<path style="fill:#93a3db; stroke:none;" d="M481 155L482 156L481 155z"/>
<path style="fill:#b9c4e8; stroke:none;" d="M206 156L207 157L206 156z"/>
<path style="fill:#889ad7; stroke:none;" d="M263 156L264 157L263 156z"/>
<path style="fill:#a8b5e2; stroke:none;" d="M306 156L307 157L306 156z"/>
<path style="fill:#4a66c2; stroke:none;" d="M311 156L312 157L311 156z"/>
<path style="fill:#c1cbea; stroke:none;" d="M17 157L18 158L17 157z"/>
<path style="fill:#4562c1; stroke:none;" d="M206 157L207 158L206 157z"/>
<path style="fill:#8598d6; stroke:none;" d="M265 157L266 158L265 157z"/>
<path style="fill:#5771c7; stroke:none;" d="M303 157L304 158L303 157z"/>
<path style="fill:#c5ceeb; stroke:none;" d="M304 157L305 158L304 157z"/>
<path style="fill:#bfc9ea; stroke:none;" d="M310 157L311 158L310 157z"/>
<path style="fill:#c9d1ed; stroke:none;" d="M482 157L483 158L482 157z"/>
<path style="fill:#647ccb; stroke:none;" d="M17 158L18 159L17 158z"/>
<path style="fill:#bfc9ea; stroke:none;" d="M207 158L208 159L207 158z"/>
<path style="fill:#8295d5; stroke:none;" d="M268 158L269 159L268 158z"/>
<path style="fill:#4360c0; stroke:none;" d="M300 158L301 159L300 158z"/>
<path style="fill:#9babdd; stroke:none;" d="M301 158L302 159L301 158z"/>
<path style="fill:#647ccb; stroke:none;" d="M482 158L483 159L482 158z"/>
<path style="fill:#9cabde; stroke:none;" d="M271 159L272 160L271 159z"/>
<path style="fill:#5a74c8; stroke:none;" d="M272 159L273 160L272 159z"/>
<path style="fill:#6079ca; stroke:none;" d="M297 159L298 160L297 159z"/>
<path style="fill:#a4b2e0; stroke:none;" d="M298 159L299 160L298 159z"/>
<path style="fill:#a1afdf; stroke:none;" d="M309 159L310 160L309 159z"/>
<path style="fill:#a2b0e0; stroke:none;" d="M16 160L17 161L16 160z"/>
<path style="fill:#8497d6; stroke:none;" d="M208 160L209 161L208 160z"/>
<path style="fill:#a5b3e1; stroke:none;" d="M274 160C275.248 160.685 275.548 160.749 277 161C275.752 160.315 275.452 160.251 274 160z"/>
<path style="fill:#3453bb; stroke:none;" d="M277.667 160.333C277.222 160.778 278.278 160.722 278.333 160.667C278.778 160.222 277.722 160.278 277.667 160.333z"/>
<path style="fill:#798ed2; stroke:none;" d="M292.667 160.333C292.222 160.778 293.278 160.722 293.333 160.667C293.778 160.222 292.722 160.278 292.667 160.333z"/>
<path style="fill:#dde2f4; stroke:none;" d="M294.667 160.333C294.222 160.778 295.278 160.722 295.333 160.667C295.778 160.222 294.722 160.278 294.667 160.333z"/>
<path style="fill:#a2b0e0; stroke:none;" d="M483 160L484 161L483 160z"/>
<path style="fill:#c2cbea; stroke:none;" d="M281 161C283.89 162.213 286.874 161.998 290 162C287.11 160.787 284.126 161.002 281 161z"/>
<path style="fill:#637bcb; stroke:none;" d="M308 161L309 162L308 161z"/>
<path style="fill:#4562c1; stroke:none;" d="M483 161L484 162L483 161z"/>
<path style="fill:#4763c1; stroke:none;" d="M209 162L210 163L209 162z"/>
<path style="fill:#bfc9ea; stroke:none;" d="M307 162L308 163L307 162z"/>
<path style="fill:#7489d0; stroke:none;" d="M15 163L16 164L15 163z"/>
<path style="fill:#98a8dc; stroke:none;" d="M210 163L211 164L210 163z"/>
<path style="fill:#7489d0; stroke:none;" d="M484 163L485 164L484 163z"/>
<path style="fill:#4a66c2; stroke:none;" d="M306 164L307 165L306 164z"/>
<path style="fill:#b2bde5; stroke:none;" d="M14 165L15 166L14 165z"/>
<path style="fill:#8094d4; stroke:none;" d="M305 165L306 166L305 165z"/>
<path style="fill:#b2bde5; stroke:none;" d="M485 165L486 166L485 165z"/>
<path style="fill:#5c75c8; stroke:none;" d="M14 166L15 167L14 166z"/>
<path style="fill:#556fc6; stroke:none;" d="M212 166L213 167L212 166z"/>
<path style="fill:#b6c2e7; stroke:none;" d="M304 166L305 167L304 166z"/>
<path style="fill:#5c75c8; stroke:none;" d="M485 166L486 167L485 166z"/>
<path style="fill:#93a3db; stroke:none;" d="M213 167L214 168L213 167z"/>
<path style="fill:#aab7e2; stroke:none;" d="M13 168L14 169L13 168z"/>
<path style="fill:#a9b6e2; stroke:none;" d="M214 168L215 169L214 168z"/>
<path style="fill:#aab7e2; stroke:none;" d="M486 168L487 169L486 168z"/>
<path style="fill:#5c75c8; stroke:none;" d="M13 169L14 170L13 169z"/>
<path style="fill:#b5c1e6; stroke:none;" d="M215 169L216 170L215 169z"/>
<path style="fill:#5c75c8; stroke:none;" d="M486 169L487 170L486 169z"/>
<path style="fill:#bac5e8; stroke:none;" d="M216 170L217 171L216 170z"/>
<path style="fill:#4864c1; stroke:none;" d="M301 170L302 171L301 170z"/>
<path style="fill:#b2bde5; stroke:none;" d="M12 171L13 172L12 171z"/>
<path style="fill:#c3cceb; stroke:none;" d="M217 171L218 172L217 171z"/>
<path style="fill:#4864c1; stroke:none;" d="M300 171L301 172L300 171z"/>
<path style="fill:#b2bde5; stroke:none;" d="M487 171L488 172L487 171z"/>
<path style="fill:#5c75c8; stroke:none;" d="M12 172L13 173L12 172z"/>
<path style="fill:#bcc6e9; stroke:none;" d="M218 172L219 173L218 172z"/>
<path style="fill:#4662c1; stroke:none;" d="M299 172L300 173L299 172z"/>
<path style="fill:#5c75c8; stroke:none;" d="M487 172L488 173L487 172z"/>
<path style="fill:#b3bfe6; stroke:none;" d="M219 173L220 174L219 173z"/>
<path style="fill:#405ebf; stroke:none;" d="M298 173L299 174L298 173z"/>
<path style="fill:#b2bde5; stroke:none;" d="M11 174L12 175L11 174z"/>
<path style="fill:#b1bde5; stroke:none;" d="M220 174L221 175L220 174z"/>
<path style="fill:#b9c4e8; stroke:none;" d="M488 174L489 175L488 174z"/>
<path style="fill:#5c75c8; stroke:none;" d="M11 175L12 176L11 175z"/>
<path style="fill:#98a8dc; stroke:none;" d="M221 175L222 176L221 175z"/>
<path style="fill:#bfc9ea; stroke:none;" d="M295 175L296 176L295 175z"/>
<path style="fill:#6c82ce; stroke:none;" d="M488 175L489 176L488 175z"/>
<path style="fill:#5570c6; stroke:none;" d="M222 176L223 177L222 176z"/>
<path style="fill:#8799d7; stroke:none;" d="M294 176L295 177L294 176z"/>
<path style="fill:#c1cbea; stroke:none;" d="M10 177L11 178L10 177z"/>
<path style="fill:#c5ceeb; stroke:none;" d="M224 177L225 178L224 177z"/>
<path style="fill:#425fc0; stroke:none;" d="M293 177L294 178L293 177z"/>
<path style="fill:#c1cbea; stroke:none;" d="M489 177L490 178L489 177z"/>
<path style="fill:#7b90d3; stroke:none;" d="M10 178L11 179L10 178z"/>
<path style="fill:#8194d5; stroke:none;" d="M225 178L226 179L225 178z"/>
<path style="fill:#abb8e3; stroke:none;" d="M291 178L292 179L291 178z"/>
<path style="fill:#7b90d3; stroke:none;" d="M489 178L490 179L489 178z"/>
<path style="fill:#c7cfec; stroke:none;" d="M227 179L228 180L227 179z"/>
<path style="fill:#4864c1; stroke:none;" d="M290 179L291 180L290 179z"/>
<path style="fill:#687fcc; stroke:none;" d="M228 180L229 181L228 180z"/>
<path style="fill:#8b9dd8; stroke:none;" d="M288 180L289 181L288 180z"/>
<path style="fill:#a2b0e0; stroke:none;" d="M9 181L10 182L9 181z"/>
<path style="fill:#a4b2e0; stroke:none;" d="M230 181L231 182L230 181z"/>
<path style="fill:#a2b0e0; stroke:none;" d="M286 181L287 182L286 181M490 181L491 182L490 181z"/>
<path style="fill:#5c75c8; stroke:none;" d="M9 182L10 183L9 182z"/>
<path style="fill:#a8b5e2; stroke:none;" d="M232 182L233 183L232 182z"/>
<path style="fill:#b0bce4; stroke:none;" d="M284 182L285 183L284 182z"/>
<path style="fill:#5c75c8; stroke:none;" d="M490 182L491 183L490 182z"/>
<path style="fill:#9eadde; stroke:none;" d="M234 183L235 184L234 183z"/>
<path style="fill:#94a5db; stroke:none;" d="M282 183L283 184L282 183z"/>
<path style="fill:#c9d1ed; stroke:none;" d="M8 184L9 185L8 184z"/>
<path style="fill:#7e92d4; stroke:none;" d="M236 184L237 185L236 184z"/>
<path style="fill:#758bd1; stroke:none;" d="M280 184L281 185L280 184z"/>
<path style="fill:#8396d5; stroke:none;" d="M8 185L9 186L8 185z"/>
<path style="fill:#758bd1; stroke:none;" d="M239 185L240 186L239 185z"/>
<path style="fill:#c6cfec; stroke:none;" d="M240 185L241 186L240 185z"/>
<path style="fill:#93a3db; stroke:none;" d="M277 185L278 186L277 185z"/>
<path style="fill:#8b9dd8; stroke:none;" d="M491 185L492 186L491 185z"/>
<path style="fill:#5d76c9; stroke:none;" d="M242 186L243 187L242 186z"/>
<path style="fill:#9faedf; stroke:none;" d="M243 186L244 187L243 186z"/>
<path style="fill:#acb9e3; stroke:none;" d="M273 186L274 187L273 186z"/>
<path style="fill:#7187cf; stroke:none;" d="M274 186L275 187L274 186z"/>
<path style="fill:#4562c1; stroke:none;" d="M491 186L492 187L491 186z"/>
<path style="fill:#a1afdf; stroke:none;" d="M246.667 187.333C246.222 187.778 247.278 187.722 247.333 187.667C247.778 187.222 246.722 187.278 246.667 187.333z"/>
<path style="fill:#98a8dc; stroke:none;" d="M269 187L270 188L269 187z"/>
<path style="fill:#6179ca; stroke:none;" d="M270 187L271 188L270 187z"/>
<path style="fill:#aab7e2; stroke:none;" d="M7 188L8 189L7 188z"/>
<path style="fill:#2c4cb8; stroke:none;" d="M251.333 188.667C251.278 188.722 251.222 189.778 251.667 189.333C251.722 189.278 251.778 188.222 251.333 188.667z"/>
<path style="fill:#657dcb; stroke:none;" d="M252 188C255.697 189.552 260.017 189 264 189C260.303 187.448 255.983 188 252 188z"/>
<path style="fill:#3655bc; stroke:none;" d="M264 188C265.248 188.685 265.548 188.749 267 189C265.752 188.315 265.452 188.251 264 188z"/>
<path style="fill:#b2bde5; stroke:none;" d="M492 188L493 189L492 188z"/>
<path style="fill:#7489d0; stroke:none;" d="M7 189L8 190L7 189z"/>
<path style="fill:#d3daf0; stroke:none;" d="M249.667 189.333C249.222 189.778 250.278 189.722 250.333 189.667C250.778 189.222 249.722 189.278 249.667 189.333z"/>
<path style="fill:#7489d0; stroke:none;" d="M492 189L493 190L492 189z"/>
<path style="fill:#5973c7; stroke:none;" d="M247 190L248 191L247 190z"/>
<path style="fill:#ffffff; stroke:none;" d="M248 190.912C244.64 192.004 241.756 195.014 239 197.116C232.664 201.947 226.364 206.832 220 211.626C198.207 228.041 176.814 244.987 155 261.373C147.629 266.91 140.349 272.563 133 278.13C130.25 280.212 125.812 282.685 124.697 286.171C123.113 291.121 127.781 300.228 129.33 305C134.175 319.92 138.755 334.979 143.28 350C149.816 371.696 156.332 393.449 163.33 415C165.27 420.975 167.107 427.001 168.975 433C169.706 435.35 170.081 438.553 171.854 440.397C174.197 442.831 178.956 442 182 442L208 442L292 442L316 442C319.208 442 323.736 442.782 326.721 441.397C329.947 439.9 330.383 435.011 331.344 432C333.996 423.694 336.729 415.379 339.141 407C347.718 377.213 357.096 347.482 366.67 318C369.146 310.375 371.419 302.679 373.72 295C374.607 292.039 376.502 288.316 374.932 285.289C371.656 278.975 361.503 274.104 356 269.79C339.491 256.85 322.556 244.455 306 231.576C292.081 220.748 278.1 209.966 264 199.373C259.924 196.311 253.657 189.074 248 190.912z"/>
<path style="fill:#5973c7; stroke:none;" d="M252 190L253 191L252 190z"/>
<path style="fill:#94a5db; stroke:none;" d="M246 191L247 192L246 191M253 191L254 192L253 191z"/>
<path style="fill:#c1cbea; stroke:none;" d="M6 192L7 193L6 192M493 192L494 193L493 192z"/>
<path style="fill:#8b9dd8; stroke:none;" d="M6 193L7 194L6 193z"/>
<path style="fill:#4f6ac4; stroke:none;" d="M243 193L244 194L243 193M256 193L257 194L256 193z"/>
<path style="fill:#8b9dd8; stroke:none;" d="M493 193L494 194L493 193z"/>
<path style="fill:#556fc6; stroke:none;" d="M6 194L7 195L6 194z"/>
<path style="fill:#899bd7; stroke:none;" d="M242 194L243 195L242 194M257 194L258 195L257 194z"/>
<path style="fill:#556fc6; stroke:none;" d="M493 194L494 195L493 194z"/>
<path style="fill:#c2cbea; stroke:none;" d="M241 195L242 196L241 195M258 195L259 196L258 195z"/>
<path style="fill:#a2b0e0; stroke:none;" d="M5 197L6 198L5 197z"/>
<path style="fill:#7287cf; stroke:none;" d="M238 197L239 198L238 197M261 197L262 198L261 197z"/>
<path style="fill:#aab7e2; stroke:none;" d="M494 197L495 198L494 197z"/>
<path style="fill:#6c82ce; stroke:none;" d="M5 198L6 199L5 198z"/>
<path style="fill:#aebae4; stroke:none;" d="M237 198L238 199L237 198M262 198L263 199L262 198z"/>
<path style="fill:#7489d0; stroke:none;" d="M494 198L495 199L494 198z"/>
<path style="fill:#657dcb; stroke:none;" d="M234 200L235 201L234 200M265 200L266 201L265 200z"/>
<path style="fill:#9aaadd; stroke:none;" d="M4 201L4 204C4.69613 202.446 4.6961 202.554 4 201z"/>
<path style="fill:#a2b0e0; stroke:none;" d="M233 201L234 202L233 201M266 201L267 202L266 201z"/>
<path style="fill:#9aaadd; stroke:none;" d="M495 201L495 204C495.696 202.446 495.696 202.554 495 201z"/>
<path style="fill:#5973c7; stroke:none;" d="M230 203L231 204L230 203M269 203L270 204L269 203z"/>
<path style="fill:#94a5db; stroke:none;" d="M229 204L230 205L229 204M270 204L271 205L270 204z"/>
<path style="fill:#4f6ac4; stroke:none;" d="M226 206L227 207L226 206M273 206L274 207L273 206z"/>
<path style="fill:#8b9dd8; stroke:none;" d="M3.33333 207.667C3.27782 207.722 3.22223 208.778 3.66667 208.333C3.72225 208.278 3.77777 207.222 3.33333 207.667z"/>
<path style="fill:#899bd7; stroke:none;" d="M225 207L226 208L225 207M274 207L275 208L274 207z"/>
<path style="fill:#8b9dd8; stroke:none;" d="M496 207L496 210C496.696 208.446 496.696 208.554 496 207z"/>
<path style="fill:#b8c3e7; stroke:none;" d="M224 208L225 209L224 208M275 208L276 209L275 208z"/>
<path style="fill:#3655bb; stroke:none;" d="M3.33333 209.667C3.27782 209.722 3.22223 210.778 3.66667 210.333C3.72225 210.278 3.77777 209.222 3.33333 209.667z"/>
<path style="fill:#7287cf; stroke:none;" d="M221 210L222 211L221 210M278 210L279 211L278 210z"/>
<path style="fill:#aebae4; stroke:none;" d="M220 211L221 212L220 211M279 211L280 212L279 211z"/>
<path style="fill:#b2bde5; stroke:none;" d="M2 212L2 215C2.6961 213.446 2.69611 213.554 2 212M497 212L497 215C497.696 213.446 497.696 213.554 497 212z"/>
<path style="fill:#657dcb; stroke:none;" d="M217 213L218 214L217 213M282 213L283 214L282 213z"/>
<path style="fill:#a2b0e0; stroke:none;" d="M216 214L217 215L216 214M283 214L284 215L283 214z"/>
<path style="fill:#556fc6; stroke:none;" d="M2 215L2 218C2.6961 216.446 2.69611 216.554 2 215M497 215L497 218C497.696 216.446 497.696 216.554 497 215z"/>
<path style="fill:#5973c7; stroke:none;" d="M213 216L214 217L213 216M286 216L287 217L286 216z"/>
<path style="fill:#94a5db; stroke:none;" d="M212 217L213 218L212 217M287 217L288 218L287 217z"/>
<path style="fill:#c2cbea; stroke:none;" d="M288 218L289 219L288 218z"/>
<path style="fill:#4562c1; stroke:none;" d="M209 219L210 220L209 219M290 219L291 220L290 219z"/>
<path style="fill:#b2bde5; stroke:none;" d="M1 220L1 223C1.6961 221.446 1.6961 221.554 1 220z"/>
<path style="fill:#7d91d3; stroke:none;" d="M208 220L209 221L208 220M291 220L292 221L291 220z"/>
<path style="fill:#b2bde5; stroke:none;" d="M498 220L498 223C498.696 221.446 498.696 221.554 498 220z"/>
<path style="fill:#b8c3e7; stroke:none;" d="M207 221L208 222L207 221M292 221L293 222L292 221z"/>
<path style="fill:#556fc6; stroke:none;" d="M1.33333 223.667C1.27775 223.722 1.22223 224.778 1.66667 224.333C1.72218 224.278 1.77777 223.222 1.33333 223.667z"/>
<path style="fill:#7287cf; stroke:none;" d="M204 223L205 224L204 223M295 223L296 224L295 223z"/>
<path style="fill:#5c75c8; stroke:none;" d="M498 223L498 226C498.696 224.446 498.696 224.554 498 223z"/>
<path style="fill:#aebae4; stroke:none;" d="M203 224L204 225L203 224M296 224L297 225L296 224z"/>
<path style="fill:#657dcb; stroke:none;" d="M200 226L201 227L200 226M299 226L300 227L299 226z"/>
<path style="fill:#a2b0e0; stroke:none;" d="M199 227L200 228L199 227M300 227L301 228L300 227z"/>
<path style="fill:#d1d8ef; stroke:none;" d="M0.333333 229.667C0.277747 229.722 0.222228 230.778 0.666667 230.333C0.722161 230.278 0.777817 229.222 0.333333 229.667z"/>
<path style="fill:#4f6ac4; stroke:none;" d="M196 229L197 230L196 229M303 229L304 230L303 229z"/>
<path style="fill:#d8def2; stroke:none;" d="M499 229L499 232C499.696 230.446 499.696 230.554 499 229z"/>
<path style="fill:#899bd7; stroke:none;" d="M195 230L196 231L195 230M304 230L305 231L304 230z"/>
<path style="fill:#aab7e2; stroke:none;" d="M0.333333 231.667C0.277747 231.722 0.222228 232.778 0.666667 232.333C0.722161 232.278 0.777817 231.222 0.333333 231.667z"/>
<path style="fill:#c2cbea; stroke:none;" d="M194 231L195 232L194 231M305 231L306 232L305 231z"/>
<path style="fill:#4562c1; stroke:none;" d="M192 232L193 233L192 232M307 232L308 233L307 232z"/>
<path style="fill:#9aaadd; stroke:none;" d="M499 232L499 235C499.696 233.446 499.696 233.554 499 232z"/>
<path style="fill:#8b9dd8; stroke:none;" d="M0.333333 233.667C0.277747 233.722 0.222228 234.778 0.666667 234.333C0.722184 234.278 0.777772 233.222 0.333333 233.667z"/>
<path style="fill:#7d91d3; stroke:none;" d="M191 233L192 234L191 233M308 233L309 234L308 233z"/>
<path style="fill:#b8c3e7; stroke:none;" d="M190 234L191 235L190 234M309 234L310 235L309 234z"/>
<path style="fill:#6c82ce; stroke:none;" d="M0.333333 235.667C0.277747 235.722 0.222228 236.778 0.666667 236.333C0.722184 236.278 0.777772 235.222 0.333333 235.667M499.333 235.667C499.278 235.722 499.222 236.778 499.667 236.333C499.722 236.278 499.778 235.222 499.333 235.667z"/>
<path style="fill:#7287cf; stroke:none;" d="M187 236L188 237L187 236M312 236L313 237L312 236z"/>
<path style="fill:#3655bb; stroke:none;" d="M0 237L0 244C1.05946 241.466 1.05947 239.534 0 237z"/>
<path style="fill:#aebae4; stroke:none;" d="M186 237L187 238L186 237M313 237L314 238L313 237z"/>
<path style="fill:#3655bb; stroke:none;" d="M499 237L499 244C500.059 241.466 500.059 239.534 499 237z"/>
<path style="fill:#5973c7; stroke:none;" d="M183 239L184 240L183 239M316 239L317 240L316 239z"/>
<path style="fill:#94a5db; stroke:none;" d="M182 240L183 241L182 240M317 240L318 241L317 240z"/>
<path style="fill:#4f6ac4; stroke:none;" d="M179 242L180 243L179 242M320 242L321 243L320 242z"/>
<path style="fill:#899bd7; stroke:none;" d="M178 243L179 244L178 243M321 243L322 244L321 243z"/>
<path style="fill:#c2cbea; stroke:none;" d="M177 244L178 245L177 244M322 244L323 245L322 244z"/>
<path style="fill:#4562c1; stroke:none;" d="M175 245L176 246L175 245M324 245L325 246L324 245z"/>
<path style="fill:#7d91d3; stroke:none;" d="M174 246L175 247L174 246M325 246L326 247L325 246z"/>
<path style="fill:#b8c3e7; stroke:none;" d="M173 247L174 248L173 247M326 247L327 248L326 247z"/>
<path style="fill:#7287cf; stroke:none;" d="M170 249L171 250L170 249z"/>
<path style="fill:#657dcb; stroke:none;" d="M329 249L330 250L329 249z"/>
<path style="fill:#aebae4; stroke:none;" d="M169 250L170 251L169 250z"/>
<path style="fill:#a2b0e0; stroke:none;" d="M330 250L331 251L330 250z"/>
<path style="fill:#3655bb; stroke:none;" d="M0 252L0 263C1.43088 259.59 1.43088 255.41 0 252z"/>
<path style="fill:#5973c7; stroke:none;" d="M166 252L167 253L166 252M333 252L334 253L333 252z"/>
<path style="fill:#2647b6; stroke:none;" d="M499 252L499 256C499.71 254.24 499.71 253.76 499 252z"/>
<path style="fill:#94a5db; stroke:none;" d="M165 253L166 254L165 253M334 253L335 254L334 253z"/>
<path style="fill:#4f6ac4; stroke:none;" d="M162 255L163 256L162 255M337 255L338 256L337 255z"/>
<path style="fill:#899bd7; stroke:none;" d="M161 256L162 257L161 256M338 256L339 257L338 256z"/>
<path style="fill:#4562c1; stroke:none;" d="M499 256L499 262C499.951 259.715 499.951 258.285 499 256z"/>
<path style="fill:#c2cbea; stroke:none;" d="M160 257L161 258L160 257M339 257L340 258L339 257z"/>
<path style="fill:#4562c1; stroke:none;" d="M158 258L159 259L158 258M341 258L342 259L341 258z"/>
<path style="fill:#7d91d3; stroke:none;" d="M157 259L158 260L157 259M342 259L343 260L342 259z"/>
<path style="fill:#b8c3e7; stroke:none;" d="M156 260L157 261L156 260z"/>
<path style="fill:#aebae4; stroke:none;" d="M343 260L344 261L343 260z"/>
<path style="fill:#657dcb; stroke:none;" d="M153 262L154 263L153 262M346 262L347 263L346 262z"/>
<path style="fill:#6c82ce; stroke:none;" d="M499 262L499 265C499.696 263.446 499.696 263.554 499 262z"/>
<path style="fill:#7b90d3; stroke:none;" d="M0.333333 263.667C0.277822 263.722 0.222201 264.778 0.666667 264.333C0.722258 264.278 0.777776 263.222 0.333333 263.667z"/>
<path style="fill:#a2b0e0; stroke:none;" d="M152 263L153 264L152 263M347 263L348 264L347 263z"/>
<path style="fill:#9aaadd; stroke:none;" d="M0.333333 265.667C0.277822 265.722 0.222201 266.778 0.666667 266.333C0.722258 266.278 0.777776 265.222 0.333333 265.667z"/>
<path style="fill:#5973c7; stroke:none;" d="M149 265L150 266L149 265M350 265L351 266L350 265z"/>
<path style="fill:#a2b0e0; stroke:none;" d="M499.333 265.667C499.278 265.722 499.222 266.778 499.667 266.333C499.722 266.278 499.778 265.222 499.333 265.667z"/>
<path style="fill:#94a5db; stroke:none;" d="M148 266L149 267L148 266M351 266L352 267L351 266z"/>
<path style="fill:#c9d1ed; stroke:none;" d="M0 267L0 270C0.696107 268.446 0.696103 268.554 0 267M499 267L499 270C499.696 268.446 499.696 268.554 499 267z"/>
<path style="fill:#4f6ac4; stroke:none;" d="M145 268L146 269L145 268M354 268L355 269L354 268z"/>
<path style="fill:#899bd7; stroke:none;" d="M144 269L145 270L144 269M355 269L356 270L355 269z"/>
<path style="fill:#ffffff; stroke:none;" d="M0 270L0 500L230 500C224.414 497.655 217.026 498.324 211 497.196C196.094 494.405 181.282 491.166 167 485.947C105.165 463.351 54.25 417.883 24.8086 359C15.199 339.781 9.03507 318.911 4.42438 298C2.48554 289.206 3.44059 278.181 0 270z"/>
<path style="fill:#c2cbea; stroke:none;" d="M143 270L144 271L143 270z"/>
<path style="fill:#b8c3e7; stroke:none;" d="M356 270L357 271L356 270z"/>
<path style="fill:#ffffff; stroke:none;" d="M499 270C498.934 293.915 491.371 318.904 482.811 341C457.329 406.776 402.879 459.558 337 484.424C315.707 492.461 291.893 498.997 269 499C274.951 501.497 283.58 500 290 500L337 500L500 500L500 338L500 291C500 284.58 501.497 275.951 499 270z"/>
<path style="fill:#4562c1; stroke:none;" d="M141 271L142 272L141 271z"/>
<path style="fill:#7d91d3; stroke:none;" d="M140 272L141 273L140 272z"/>
<path style="fill:#7287cf; stroke:none;" d="M359 272L360 273L359 272z"/>
<path style="fill:#2e4eb9; stroke:none;" d="M498 272L498 275C498.696 273.446 498.696 273.554 498 272z"/>
<path style="fill:#3d5bbe; stroke:none;" d="M1 273L1 276C1.69611 274.446 1.6961 274.554 1 273z"/>
<path style="fill:#aebae4; stroke:none;" d="M139 273L140 274L139 273M360 273L361 274L360 273z"/>
<path style="fill:#657dcb; stroke:none;" d="M136 275L137 276L136 275M363 275L364 276L363 275z"/>
<path style="fill:#7489d0; stroke:none;" d="M498.333 275.667C498.278 275.722 498.222 276.778 498.667 276.333C498.722 276.278 498.778 275.222 498.333 275.667z"/>
<path style="fill:#93a3db; stroke:none;" d="M1 276L1 279C1.6961 277.446 1.6961 277.554 1 276z"/>
<path style="fill:#a2b0e0; stroke:none;" d="M135 276L136 277L135 276M364 276L365 277L364 276z"/>
<path style="fill:#b2bde5; stroke:none;" d="M498.333 277.667C498.278 277.722 498.222 278.778 498.667 278.333C498.722 278.278 498.778 277.222 498.333 277.667z"/>
<path style="fill:#5973c7; stroke:none;" d="M132 278L133 279L132 278M367 278L368 279L367 278z"/>
<path style="fill:#94a5db; stroke:none;" d="M131 279L132 280L131 279M368 279L369 280L368 279z"/>
<path style="fill:#4f6ac4; stroke:none;" d="M128 281L129 282L128 281z"/>
<path style="fill:#4562c1; stroke:none;" d="M371 281L372 282L371 281z"/>
<path style="fill:#556fc6; stroke:none;" d="M2 282L2 285C2.6961 283.446 2.6961 283.554 2 282z"/>
<path style="fill:#899bd7; stroke:none;" d="M127 282L128 283L127 282z"/>
<path style="fill:#7d91d3; stroke:none;" d="M372 282L373 283L372 282z"/>
<path style="fill:#556fc6; stroke:none;" d="M497 282L497 285C497.696 283.446 497.696 283.554 497 282z"/>
<path style="fill:#b8c3e7; stroke:none;" d="M126 283L127 284L126 283M373 283L374 284L373 283z"/>
<path style="fill:#b2bde5; stroke:none;" d="M2.33333 285.667C2.27779 285.722 2.22224 286.778 2.66667 286.333C2.72221 286.278 2.7778 285.222 2.33333 285.667z"/>
<path style="fill:#6a81cd; stroke:none;" d="M123.333 285.667C123.278 285.722 123.222 286.778 123.667 286.333C123.722 286.278 123.778 285.222 123.333 285.667M376.333 285.667C376.278 285.722 376.222 286.778 376.667 286.333C376.722 286.278 376.778 285.222 376.333 285.667z"/>
<path style="fill:#b2bde5; stroke:none;" d="M497.333 285.667C497.278 285.722 497.222 286.778 497.667 286.333C497.722 286.278 497.778 285.222 497.333 285.667z"/>
<path style="fill:#9babdd; stroke:none;" d="M124 289L125 290L124 289M375 289L376 290L375 289z"/>
<path style="fill:#5c75c8; stroke:none;" d="M496.333 289.667C496.278 289.722 496.222 290.778 496.667 290.333C496.722 290.278 496.778 289.222 496.333 289.667z"/>
<path style="fill:#8b9dd8; stroke:none;" d="M3.33333 290.667C3.27778 290.722 3.22222 291.778 3.66667 291.333C3.7222 291.278 3.77782 290.222 3.33333 290.667z"/>
<path style="fill:#4e69c3; stroke:none;" d="M124 290L125 291L124 290M375 290L376 291L375 290z"/>
<path style="fill:#b9c4e8; stroke:none;" d="M496.333 291.667C496.278 291.722 496.222 292.778 496.667 292.333C496.722 292.278 496.778 291.222 496.333 291.667z"/>
<path style="fill:#e0e5f5; stroke:none;" d="M3.33333 292.667C3.27778 292.722 3.22222 293.778 3.66667 293.333C3.72223 293.278 3.77779 292.222 3.33333 292.667z"/>
<path style="fill:#abb8e3; stroke:none;" d="M125 292L126 293L125 292M374 292L375 293L374 292z"/>
<path style="fill:#5d76c9; stroke:none;" d="M125 293L126 294L125 293M374 293L375 294L374 293z"/>
<path style="fill:#6c82ce; stroke:none;" d="M4.33333 295.667C4.27774 295.722 4.22222 296.778 4.66667 296.333C4.72219 296.278 4.77778 295.222 4.33333 295.667z"/>
<path style="fill:#bac5e8; stroke:none;" d="M126 295L127 296L126 295M373 295L374 296L373 295z"/>
<path style="fill:#6c82ce; stroke:none;" d="M495 295L495 298C495.696 296.446 495.696 296.554 495 295z"/>
<path style="fill:#6d83ce; stroke:none;" d="M126 296L127 297L126 296M373 296L374 297L373 296z"/>
<path style="fill:#c1cbea; stroke:none;" d="M4.33333 297.667C4.27774 297.722 4.22222 298.778 4.66667 298.333C4.7222 298.278 4.77779 297.222 4.33333 297.667z"/>
<path style="fill:#7c90d3; stroke:none;" d="M127 299L128 300L127 299M372 299L373 300L372 299z"/>
<path style="fill:#6c82ce; stroke:none;" d="M5 301L6 302L5 301z"/>
<path style="fill:#7489d0; stroke:none;" d="M494 301L495 302L494 301z"/>
<path style="fill:#a2b0e0; stroke:none;" d="M5 302L6 303L5 302z"/>
<path style="fill:#9babdd; stroke:none;" d="M128 302L129 303L128 302z"/>
<path style="fill:#8c9dd8; stroke:none;" d="M371 302L372 303L371 302z"/>
<path style="fill:#aab7e2; stroke:none;" d="M494 302L495 303L494 302z"/>
<path style="fill:#4e69c3; stroke:none;" d="M128 303L129 304L128 303z"/>
<path style="fill:#4662c1; stroke:none;" d="M371 303L372 304L371 303z"/>
<path style="fill:#556fc6; stroke:none;" d="M6 305L7 306L6 305z"/>
<path style="fill:#abb8e3; stroke:none;" d="M129 305L130 306L129 305M370 305L371 306L370 305z"/>
<path style="fill:#556fc6; stroke:none;" d="M493 305L494 306L493 305z"/>
<path style="fill:#8b9dd8; stroke:none;" d="M6 306L7 307L6 306z"/>
<path style="fill:#5d76c9; stroke:none;" d="M129 306L130 307L129 306M370 306L371 307L370 306z"/>
<path style="fill:#93a3db; stroke:none;" d="M493 306L494 307L493 306z"/>
<path style="fill:#bac5e8; stroke:none;" d="M130 308L131 309L130 308M369 308L370 309L369 308z"/>
<path style="fill:#6d83ce; stroke:none;" d="M130 309L131 310L130 309M369 309L370 310L369 309z"/>
<path style="fill:#7489d0; stroke:none;" d="M7 310L8 311L7 310M492 310L493 311L492 310z"/>
<path style="fill:#b2bde5; stroke:none;" d="M7 311L8 312L7 311M492 311L493 312L492 311z"/>
<path style="fill:#7c90d3; stroke:none;" d="M131 312L132 313L131 312M368 312L369 313L368 312z"/>
<path style="fill:#4562c1; stroke:none;" d="M8 313L9 314L8 313M491 313L492 314L491 313z"/>
<path style="fill:#8b9dd8; stroke:none;" d="M8 314L9 315L8 314M491 314L492 315L491 314z"/>
<path style="fill:#8c9dd8; stroke:none;" d="M132 315L133 316L132 315M367 315L368 316L367 315z"/>
<path style="fill:#5c75c8; stroke:none;" d="M9 317L10 318L9 317z"/>
<path style="fill:#647ccb; stroke:none;" d="M490 317L491 318L490 317z"/>
<path style="fill:#a2b0e0; stroke:none;" d="M9 318L10 319L9 318z"/>
<path style="fill:#9babdd; stroke:none;" d="M133 318L134 319L133 318M366 318L367 319L366 318z"/>
<path style="fill:#aab7e2; stroke:none;" d="M490 318L491 319L490 318z"/>
<path style="fill:#4e69c3; stroke:none;" d="M133 319L134 320L133 319M366 319L367 320L366 319z"/>
<path style="fill:#7b90d3; stroke:none;" d="M10 321L11 322L10 321z"/>
<path style="fill:#b2bee5; stroke:none;" d="M134 321L135 322L134 321z"/>
<path style="fill:#abb8e3; stroke:none;" d="M365 321L366 322L365 321z"/>
<path style="fill:#7b90d3; stroke:none;" d="M489 321L490 322L489 321z"/>
<path style="fill:#c1cbea; stroke:none;" d="M10 322L11 323L10 322z"/>
<path style="fill:#6d83ce; stroke:none;" d="M134 322L135 323L134 322z"/>
<path style="fill:#5d76c9; stroke:none;" d="M365 322L366 323L365 322z"/>
<path style="fill:#c1cbea; stroke:none;" d="M489 322L490 323L489 322z"/>
<path style="fill:#647ccb; stroke:none;" d="M11 324L12 325L11 324z"/>
<path style="fill:#6c82ce; stroke:none;" d="M488 324L489 325L488 324z"/>
<path style="fill:#b9c4e8; stroke:none;" d="M11 325L12 326L11 325z"/>
<path style="fill:#7c90d3; stroke:none;" d="M135 325L136 326L135 325M364 325L365 326L364 325z"/>
<path style="fill:#b9c4e8; stroke:none;" d="M488 325L489 326L488 325z"/>
<path style="fill:#647ccb; stroke:none;" d="M12 327L13 328L12 327z"/>
<path style="fill:#6c82ce; stroke:none;" d="M487 327L488 328L487 327z"/>
<path style="fill:#b9c4e8; stroke:none;" d="M12 328L13 329L12 328z"/>
<path style="fill:#8c9dd8; stroke:none;" d="M136 328L137 329L136 328M363 328L364 329L363 328z"/>
<path style="fill:#b9c4e8; stroke:none;" d="M487 328L488 329L487 328z"/>
<path style="fill:#647ccb; stroke:none;" d="M13 330L14 331L13 330z"/>
<path style="fill:#6c82ce; stroke:none;" d="M486 330L487 331L486 330z"/>
<path style="fill:#b9c4e8; stroke:none;" d="M13 331L14 332L13 331z"/>
<path style="fill:#9babdd; stroke:none;" d="M137 331L138 332L137 331M362 331L363 332L362 331z"/>
<path style="fill:#b9c4e8; stroke:none;" d="M486 331L487 332L486 331z"/>
<path style="fill:#4e69c3; stroke:none;" d="M137 332L138 333L137 332M362 332L363 333L362 332z"/>
<path style="fill:#647ccb; stroke:none;" d="M14 333L15 334L14 333z"/>
<path style="fill:#6c82ce; stroke:none;" d="M485 333L486 334L485 333z"/>
<path style="fill:#c1cbea; stroke:none;" d="M14 334L15 335L14 334z"/>
<path style="fill:#abb8e3; stroke:none;" d="M138 334L139 335L138 334M361 334L362 335L361 334z"/>
<path style="fill:#c1cbea; stroke:none;" d="M485 334L486 335L485 334z"/>
<path style="fill:#5d76c9; stroke:none;" d="M138 335L139 336L138 335M361 335L362 336L361 335z"/>
<path style="fill:#8396d5; stroke:none;" d="M15 336L16 337L15 336M484 336L485 337L484 336z"/>
<path style="fill:#bac5e8; stroke:none;" d="M139 337L140 338L139 337M360 337L361 338L360 337z"/>
<path style="fill:#4562c1; stroke:none;" d="M16 338L17 339L16 338z"/>
<path style="fill:#6d83ce; stroke:none;" d="M139 338L140 339L139 338M360 338L361 339L360 338z"/>
<path style="fill:#4562c1; stroke:none;" d="M483 338L484 339L483 338z"/>
<path style="fill:#a2b0e0; stroke:none;" d="M16 339L17 340L16 339z"/>
<path style="fill:#aab7e2; stroke:none;" d="M483 339L484 340L483 339z"/>
<path style="fill:#6c82ce; stroke:none;" d="M17 341L18 342L17 341z"/>
<path style="fill:#8c9dd8; stroke:none;" d="M140 341L141 342L140 341z"/>
<path style="fill:#7c90d3; stroke:none;" d="M359 341L360 342L359 341z"/>
<path style="fill:#7489d0; stroke:none;" d="M482 341L483 342L482 341z"/>
<path style="fill:#93a3db; stroke:none;" d="M18 344L19 345L18 344z"/>
<path style="fill:#9babdd; stroke:none;" d="M141 344L142 345L141 344M358 344L359 345L358 344z"/>
<path style="fill:#93a3db; stroke:none;" d="M481 344L482 345L481 344z"/>
<path style="fill:#4e69c3; stroke:none;" d="M141 345L142 346L141 345M358 345L359 346L358 345z"/>
<path style="fill:#5c75c8; stroke:none;" d="M19 346L20 347L19 346M480 346L481 347L480 346z"/>
<path style="fill:#c9d1ed; stroke:none;" d="M19 347L20 348L19 347z"/>
<path style="fill:#abb8e3; stroke:none;" d="M142 347L143 348L142 347M357 347L358 348L357 347z"/>
<path style="fill:#c9d1ed; stroke:none;" d="M480 347L481 348L480 347z"/>
<path style="fill:#5d76c9; stroke:none;" d="M142 348L143 349L142 348M357 348L358 349L357 348z"/>
<path style="fill:#4562c1; stroke:none;" d="M479 348L480 349L479 348z"/>
<path style="fill:#b2bde5; stroke:none;" d="M20 349L21 350L20 349z"/>
<path style="fill:#b9c4e8; stroke:none;" d="M479 349L480 350L479 349z"/>
<path style="fill:#bac5e8; stroke:none;" d="M143 350L144 351L143 350M356 350L357 351L356 350z"/>
<path style="fill:#9aaadd; stroke:none;" d="M21 351L22 352L21 351z"/>
<path style="fill:#6d83ce; stroke:none;" d="M143 351L144 352L143 351M356 351L357 352L356 351z"/>
<path style="fill:#9aaadd; stroke:none;" d="M478 351L479 352L478 351z"/>
<path style="fill:#7b90d3; stroke:none;" d="M22 353L23 354L22 353M477 353L478 354L477 353z"/>
<path style="fill:#7c90d3; stroke:none;" d="M144 354L145 355L144 354M355 354L356 355L355 354z"/>
<path style="fill:#5c75c8; stroke:none;" d="M23 355L24 356L23 355M476 355L477 356L476 355z"/>
<path style="fill:#c9d1ed; stroke:none;" d="M23 356L24 357L23 356M476 356L477 357L476 356z"/>
<path style="fill:#4562c1; stroke:none;" d="M24 357L25 358L24 357z"/>
<path style="fill:#8c9dd8; stroke:none;" d="M145 357L146 358L145 357M354 357L355 358L354 357z"/>
<path style="fill:#4562c1; stroke:none;" d="M475 357L476 358L475 357z"/>
<path style="fill:#c1cbea; stroke:none;" d="M24 358L25 359L24 358M475 358L476 359L475 358z"/>
<path style="fill:#4562c1; stroke:none;" d="M25 359L26 360L25 359M474 359L475 360L474 359z"/>
<path style="fill:#c1cbea; stroke:none;" d="M25 360L26 361L25 360z"/>
<path style="fill:#a3b1e0; stroke:none;" d="M146 360L147 361L146 360z"/>
<path style="fill:#9babdd; stroke:none;" d="M353 360L354 361L353 360z"/>
<path style="fill:#c3cceb; stroke:none;" d="M474 360L475 361L474 360z"/>
<path style="fill:#4562c1; stroke:none;" d="M26 361L27 362L26 361z"/>
<path style="fill:#5d76c9; stroke:none;" d="M146 361L147 362L146 361z"/>
<path style="fill:#4e69c3; stroke:none;" d="M353 361L354 362L353 361z"/>
<path style="fill:#556fc6; stroke:none;" d="M473 361L474 362L473 361z"/>
<path style="fill:#c1cbea; stroke:none;" d="M26 362L27 363L26 362z"/>
<path style="fill:#556fc6; stroke:none;" d="M27 363L28 364L27 363z"/>
<path style="fill:#bac5e8; stroke:none;" d="M147 363L148 364L147 363z"/>
<path style="fill:#b2bee5; stroke:none;" d="M352 363L353 364L352 363z"/>
<path style="fill:#556fc6; stroke:none;" d="M472 363L473 364L472 363z"/>
<path style="fill:#6d83ce; stroke:none;" d="M147 364L148 365L147 364M352 364L353 365L352 364z"/>
<path style="fill:#556fc6; stroke:none;" d="M28 365L29 366L28 365M471 365L472 366L471 365M29 367L30 368L29 367z"/>
<path style="fill:#7c90d3; stroke:none;" d="M148 367L149 368L148 367M351 367L352 368L351 367z"/>
<path style="fill:#556fc6; stroke:none;" d="M470 367L471 368L470 367z"/>
<path style="fill:#6c82ce; stroke:none;" d="M30 369L31 370L30 369M469 369L470 370L469 369z"/>
<path style="fill:#8c9dd8; stroke:none;" d="M149 370L150 371L149 370M350 370L351 371L350 370z"/>
<path style="fill:#8b9dd8; stroke:none;" d="M31 371L32 372L31 371M468 371L469 372L468 371z"/>
<path style="fill:#aab7e2; stroke:none;" d="M32 373L33 374L32 373z"/>
<path style="fill:#9babdd; stroke:none;" d="M150 373L151 374L150 373M349 373L350 374L349 373z"/>
<path style="fill:#aab7e2; stroke:none;" d="M467 373L468 374L467 373z"/>
<path style="fill:#3e5cbe; stroke:none;" d="M33 374L34 375L33 374z"/>
<path style="fill:#4e69c3; stroke:none;" d="M150 374L151 375L150 374M349 374L350 375L349 374z"/>
<path style="fill:#c9d1ed; stroke:none;" d="M33 375L34 376L33 375z"/>
<path style="fill:#5c75c8; stroke:none;" d="M34 376L35 377L34 376z"/>
<path style="fill:#abb8e3; stroke:none;" d="M151 376L152 377L151 376M348 376L349 377L348 376z"/>
<path style="fill:#6c82ce; stroke:none;" d="M465 376L466 377L465 376z"/>
<path style="fill:#5d76c9; stroke:none;" d="M151 377L152 378L151 377M348 377L349 378L348 377z"/>
<path style="fill:#7b90d3; stroke:none;" d="M35 378L36 379L35 378z"/>
<path style="fill:#8b9dd8; stroke:none;" d="M464 378L465 379L464 378z"/>
<path style="fill:#c2cbea; stroke:none;" d="M152 379L153 380L152 379z"/>
<path style="fill:#bac5e8; stroke:none;" d="M347 379L348 380L347 379z"/>
<path style="fill:#c1cbea; stroke:none;" d="M36 380L37 381L36 380z"/>
<path style="fill:#7c90d3; stroke:none;" d="M152 380L153 381L152 380z"/>
<path style="fill:#6d83ce; stroke:none;" d="M347 380L348 381L347 380z"/>
<path style="fill:#c3cceb; stroke:none;" d="M463 380L464 381L463 380z"/>
<path style="fill:#647ccb; stroke:none;" d="M37 381L38 382L37 381M462 381L463 382L462 381z"/>
<path style="fill:#a2b0e0; stroke:none;" d="M38 383L39 384L38 383z"/>
<path style="fill:#8c9dd8; stroke:none;" d="M153 383L154 384L153 383z"/>
<path style="fill:#7c90d3; stroke:none;" d="M346 383L347 384L346 383z"/>
<path style="fill:#a2b0e0; stroke:none;" d="M461 383L462 384L461 383z"/>
<path style="fill:#4662c1; stroke:none;" d="M39 384L40 385L39 384z"/>
<path style="fill:#526cc5; stroke:none;" d="M460 384L461 385L460 384z"/>
<path style="fill:#93a3db; stroke:none;" d="M40 386L41 387L40 386z"/>
<path style="fill:#9babdd; stroke:none;" d="M154 386L155 387L154 386M345 386L346 387L345 386z"/>
<path style="fill:#93a3db; stroke:none;" d="M459 386L460 387L459 386z"/>
<path style="fill:#4e69c3; stroke:none;" d="M154 387L155 388L154 387M345 387L346 388L345 387z"/>
<path style="fill:#7b90d3; stroke:none;" d="M42 389L43 390L42 389z"/>
<path style="fill:#abb8e3; stroke:none;" d="M155 389L156 390L155 389M344 389L345 390L344 389z"/>
<path style="fill:#7b90d3; stroke:none;" d="M457 389L458 390L457 389z"/>
<path style="fill:#3e5cbe; stroke:none;" d="M43 390L44 391L43 390z"/>
<path style="fill:#5d76c9; stroke:none;" d="M155 390L156 391L155 390M344 390L345 391L344 390z"/>
<path style="fill:#9aaadd; stroke:none;" d="M44 392L45 393L44 392z"/>
<path style="fill:#bac5e8; stroke:none;" d="M156 392L157 393L156 392M343 392L344 393L343 392z"/>
<path style="fill:#9aaadd; stroke:none;" d="M455 392L456 393L455 392z"/>
<path style="fill:#4c67c3; stroke:none;" d="M45 393L46 394L45 393z"/>
<path style="fill:#6d83ce; stroke:none;" d="M156 393L157 394L156 393M343 393L344 394L343 393z"/>
<path style="fill:#5872c7; stroke:none;" d="M454 393L455 394L454 393z"/>
<path style="fill:#bbc6e8; stroke:none;" d="M46 395L47 396L46 395z"/>
<path style="fill:#bdc7e9; stroke:none;" d="M453 395L454 396L453 395z"/>
<path style="fill:#6c82ce; stroke:none;" d="M47 396L48 397L47 396z"/>
<path style="fill:#7c90d3; stroke:none;" d="M157 396L158 397L157 396M342 396L343 397L342 396z"/>
<path style="fill:#6c82ce; stroke:none;" d="M452 396L453 397L452 396z"/>
<path style="fill:#c9d1ed; stroke:none;" d="M48 398L49 399L48 398z"/>
<path style="fill:#93a3db; stroke:none;" d="M49 399L50 400L49 399z"/>
<path style="fill:#93a4db; stroke:none;" d="M158 399L159 400L158 399z"/>
<path style="fill:#8c9dd8; stroke:none;" d="M341 399L342 400L341 399z"/>
<path style="fill:#93a3db; stroke:none;" d="M450 399L451 400L450 399z"/>
<path style="fill:#6179ca; stroke:none;" d="M50 400L51 401L50 400z"/>
<path style="fill:#4e69c3; stroke:none;" d="M158 400L159 401L158 400z"/>
<path style="fill:#5f78c9; stroke:none;" d="M449 400L450 401L449 400z"/>
<path style="fill:#abb8e3; stroke:none;" d="M159 402L160 403L159 402z"/>
<path style="fill:#9babdd; stroke:none;" d="M340 402L341 403L340 402z"/>
<path style="fill:#b4c0e6; stroke:none;" d="M52 403L53 404L52 403z"/>
<path style="fill:#5d76c9; stroke:none;" d="M159 403L160 404L159 403z"/>
<path style="fill:#4e69c3; stroke:none;" d="M340 403L341 404L340 403z"/>
<path style="fill:#b6c2e7; stroke:none;" d="M447 403L448 404L447 403z"/>
<path style="fill:#7b90d3; stroke:none;" d="M53 404L54 405L53 404M446 404L447 405L446 404z"/>
<path style="fill:#4662c1; stroke:none;" d="M54 405L55 406L54 405z"/>
<path style="fill:#bac5e8; stroke:none;" d="M160 405L161 406L160 405M339 405L340 406L339 405z"/>
<path style="fill:#4461c0; stroke:none;" d="M445 405L446 406L445 405z"/>
<path style="fill:#6d83ce; stroke:none;" d="M160 406L161 407L160 406M339 406L340 407L339 406z"/>
<path style="fill:#c1cbea; stroke:none;" d="M55 407L56 408L55 407z"/>
<path style="fill:#93a3db; stroke:none;" d="M56 408L57 409L56 408z"/>
<path style="fill:#9aaadd; stroke:none;" d="M443 408L444 409L443 408z"/>
<path style="fill:#6c82ce; stroke:none;" d="M57 409L58 410L57 409z"/>
<path style="fill:#7c90d3; stroke:none;" d="M161 409L162 410L161 409M338 409L339 410L338 409z"/>
<path style="fill:#6c82ce; stroke:none;" d="M442 409L443 410L442 409z"/>
<path style="fill:#4b67c2; stroke:none;" d="M58 410L59 411L58 410z"/>
<path style="fill:#4a66c2; stroke:none;" d="M441 410L442 411L441 410z"/>
<path style="fill:#8c9dd8; stroke:none;" d="M162 412L163 413L162 412M337 412L338 413L337 412z"/>
<path style="fill:#bcc6e9; stroke:none;" d="M61 414L62 415L61 414z"/>
<path style="fill:#bdc7e9; stroke:none;" d="M438 414L439 415L438 414z"/>
<path style="fill:#9aaadd; stroke:none;" d="M62 415L63 416L62 415z"/>
<path style="fill:#9babdd; stroke:none;" d="M163 415L164 416L163 415M336 415L337 416L336 415z"/>
<path style="fill:#a3b1e0; stroke:none;" d="M437 415L438 416L437 415z"/>
<path style="fill:#7489d0; stroke:none;" d="M63 416L64 417L63 416z"/>
<path style="fill:#4e69c3; stroke:none;" d="M163 416L164 417L163 416M336 416L337 417L336 416z"/>
<path style="fill:#7b90d3; stroke:none;" d="M436 416L437 417L436 416z"/>
<path style="fill:#5872c7; stroke:none;" d="M64 417L65 418L64 417z"/>
<path style="fill:#5670c6; stroke:none;" d="M435 417L436 418L435 417z"/>
<path style="fill:#506bc4; stroke:none;" d="M65 418L66 419L65 418z"/>
<path style="fill:#b2bee5; stroke:none;" d="M164 418L165 419L164 418z"/>
<path style="fill:#abb8e3; stroke:none;" d="M335 418L336 419L335 418z"/>
<path style="fill:#506bc4; stroke:none;" d="M434 418L435 419L434 418z"/>
<path style="fill:#4461c0; stroke:none;" d="M66 419L67 420L66 419z"/>
<path style="fill:#6d83ce; stroke:none;" d="M164 419L165 420L164 419z"/>
<path style="fill:#5d76c9; stroke:none;" d="M335 419L336 420L335 419z"/>
<path style="fill:#4461c0; stroke:none;" d="M433 419L434 420L433 419M67 420L68 421L67 420M432 420L433 421L432 420z"/>
<path style="fill:#bac5e8; stroke:none;" d="M334 421L335 422L334 421z"/>
<path style="fill:#7c90d3; stroke:none;" d="M165 422L166 423L165 422z"/>
<path style="fill:#6d83ce; stroke:none;" d="M334 422L335 423L334 422z"/>
<path style="fill:#8c9dd8; stroke:none;" d="M166 425L167 426L166 425M333 425L334 426L333 425z"/>
<path style="fill:#9babdd; stroke:none;" d="M167 428L168 429L167 428M332 428L333 429L332 428z"/>
<path style="fill:#4e69c3; stroke:none;" d="M167 429L168 430L167 429M332 429L333 430L332 429z"/>
<path style="fill:#3e5cbe; stroke:none;" d="M77 430L78 431L77 430M422 430L423 431L422 430z"/>
<path style="fill:#4965c2; stroke:none;" d="M78 431L79 432L78 431z"/>
<path style="fill:#abb8e3; stroke:none;" d="M168 431L169 432L168 431M331 431L332 432L331 431z"/>
<path style="fill:#4965c2; stroke:none;" d="M421 431L422 432L421 431z"/>
<path style="fill:#556fc6; stroke:none;" d="M79 432L80 433L79 432z"/>
<path style="fill:#5d76c9; stroke:none;" d="M168 432L169 433L168 432M331 432L332 433L331 432z"/>
<path style="fill:#556fc6; stroke:none;" d="M420 432L421 433L420 432M80 433L81 434L80 433z"/>
<path style="fill:#6079ca; stroke:none;" d="M419 433L420 434L419 433M81 434L82 435L81 434z"/>
<path style="fill:#bac5e8; stroke:none;" d="M169 434L170 435L169 434M330 434L331 435L330 434z"/>
<path style="fill:#6079ca; stroke:none;" d="M418 434L419 435L418 434z"/>
<path style="fill:#8295d5; stroke:none;" d="M82 435L83 436L82 435z"/>
<path style="fill:#6d83ce; stroke:none;" d="M169 435L170 436L169 435M330 435L331 436L330 435z"/>
<path style="fill:#7e92d4; stroke:none;" d="M417 435L418 436L417 435z"/>
<path style="fill:#a0afdf; stroke:none;" d="M83 436L84 437L83 436z"/>
<path style="fill:#a4b2e0; stroke:none;" d="M416 436L417 437L416 436z"/>
<path style="fill:#b8c3e7; stroke:none;" d="M84 437L85 438L84 437z"/>
<path style="fill:#bac5e8; stroke:none;" d="M415 437L416 438L415 437z"/>
<path style="fill:#8497d6; stroke:none;" d="M170 438L171 439L170 438z"/>
<path style="fill:#7c90d3; stroke:none;" d="M329 438L330 439L329 438z"/>
<path style="fill:#4f6ac4; stroke:none;" d="M88 440L89 441L88 440z"/>
<path style="fill:#4d68c3; stroke:none;" d="M411 440L412 441L411 440z"/>
<path style="fill:#748ad0; stroke:none;" d="M89 441L90 442L89 441z"/>
<path style="fill:#9babdd; stroke:none;" d="M171 441L172 442L171 441z"/>
<path style="fill:#8c9dd8; stroke:none;" d="M328 441L329 442L328 441z"/>
<path style="fill:#7187cf; stroke:none;" d="M410 441L411 442L410 441z"/>
<path style="fill:#93a3db; stroke:none;" d="M90 442L91 443L90 442z"/>
<path style="fill:#173bb1; stroke:none;" d="M172 442C176.72 443.981 182.92 443 188 443L219 443L328 443C323.28 441.019 317.08 442 312 442L281 442L172 442z"/>
<path style="fill:#96a6dc; stroke:none;" d="M409 442L410 443L409 442z"/>
<path style="fill:#b5c1e6; stroke:none;" d="M91 443L92 444L91 443z"/>
<path style="fill:#b8c3e7; stroke:none;" d="M408 443L409 444L408 443z"/>
<path style="fill:#5c75c8; stroke:none;" d="M94 445L95 446L94 445z"/>
<path style="fill:#657dcb; stroke:none;" d="M405 445L406 446L405 445z"/>
<path style="fill:#9aaadd; stroke:none;" d="M95 446L96 447L95 446z"/>
<path style="fill:#a2b0e0; stroke:none;" d="M404 446L405 447L404 446z"/>
<path style="fill:#c9d1ed; stroke:none;" d="M96 447L97 448L96 447z"/>
<path style="fill:#4864c1; stroke:none;" d="M98 448L99 449L98 448z"/>
<path style="fill:#4562c1; stroke:none;" d="M401 448L402 449L401 448z"/>
<path style="fill:#758bd1; stroke:none;" d="M99 449L100 450L99 449z"/>
<path style="fill:#748ad0; stroke:none;" d="M400 449L401 450L400 449z"/>
<path style="fill:#abb8e3; stroke:none;" d="M100 450L101 451L100 450z"/>
<path style="fill:#aebae4; stroke:none;" d="M399 450L400 451L399 450z"/>
<path style="fill:#405ebf; stroke:none;" d="M102 451L103 452L102 451M397 451L398 452L397 451z"/>
<path style="fill:#899bd7; stroke:none;" d="M103 452L104 453L103 452z"/>
<path style="fill:#889ad7; stroke:none;" d="M396 452L397 453L396 452z"/>
<path style="fill:#7489d0; stroke:none;" d="M106 454L107 455L106 454z"/>
<path style="fill:#7388d0; stroke:none;" d="M393 454L394 455L393 454z"/>
<path style="fill:#bec8e9; stroke:none;" d="M107 455L108 456L107 455M392 455L393 456L392 455z"/>
<path style="fill:#5d76c9; stroke:none;" d="M109 456L110 457L109 456z"/>
<path style="fill:#687fcc; stroke:none;" d="M390 456L391 457L390 456z"/>
<path style="fill:#aab7e2; stroke:none;" d="M110 457L111 458L110 457z"/>
<path style="fill:#b4c0e6; stroke:none;" d="M389 457L390 458L389 457z"/>
<path style="fill:#6079ca; stroke:none;" d="M112 458L113 459L112 458z"/>
<path style="fill:#5f78c9; stroke:none;" d="M387 458L388 459L387 458z"/>
<path style="fill:#bbc6e8; stroke:none;" d="M113 459L114 460L113 459M386 459L387 460L386 459z"/>
<path style="fill:#7d91d3; stroke:none;" d="M115 460L116 461L115 460z"/>
<path style="fill:#7c90d3; stroke:none;" d="M384 460L385 461L384 460z"/>
<path style="fill:#91a2da; stroke:none;" d="M118 462L119 463L118 462z"/>
<path style="fill:#99a9dd; stroke:none;" d="M381 462L382 463L381 462z"/>
<path style="fill:#5570c6; stroke:none;" d="M120 463L121 464L120 463M379 463L380 464L379 463z"/>
<path style="fill:#b9c4e8; stroke:none;" d="M121 464L122 465L121 464M378 464L379 465L378 464z"/>
<path style="fill:#95a6dc; stroke:none;" d="M123 465L124 466L123 465z"/>
<path style="fill:#93a4db; stroke:none;" d="M376 465L377 466L376 465z"/>
<path style="fill:#7287cf; stroke:none;" d="M125 466L126 467L125 466z"/>
<path style="fill:#7187cf; stroke:none;" d="M374 466L375 467L374 466z"/>
<path style="fill:#4e69c3; stroke:none;" d="M127 467L128 468L127 467M372 467L373 468L372 467z"/>
<path style="fill:#b9c4e8; stroke:none;" d="M128 468L129 469L128 468M371 468L372 469L371 468z"/>
<path style="fill:#95a6dc; stroke:none;" d="M130 469L131 470L130 469z"/>
<path style="fill:#93a4db; stroke:none;" d="M369 469L370 470L369 469z"/>
<path style="fill:#8699d6; stroke:none;" d="M132 470L133 471L132 470z"/>
<path style="fill:#8598d6; stroke:none;" d="M367 470L368 471L367 470z"/>
<path style="fill:#7d91d3; stroke:none;" d="M134 471L135 472L134 471z"/>
<path style="fill:#7c90d3; stroke:none;" d="M365 471L366 472L365 471z"/>
<path style="fill:#7d91d3; stroke:none;" d="M136 472L137 473L136 472z"/>
<path style="fill:#7c90d3; stroke:none;" d="M363 472L364 473L363 472z"/>
<path style="fill:#7d91d3; stroke:none;" d="M138 473L139 474L138 473z"/>
<path style="fill:#7c90d3; stroke:none;" d="M361 473L362 474L361 473z"/>
<path style="fill:#758bd1; stroke:none;" d="M140 474L141 475L140 474z"/>
<path style="fill:#748ad0; stroke:none;" d="M359 474L360 475L359 474z"/>
<path style="fill:#758bd1; stroke:none;" d="M142 475L143 476L142 475z"/>
<path style="fill:#748ad0; stroke:none;" d="M357 475L358 476L357 475z"/>
<path style="fill:#8094d4; stroke:none;" d="M144 476L145 477L144 476z"/>
<path style="fill:#7f93d4; stroke:none;" d="M355 476L356 477L355 476z"/>
<path style="fill:#95a6dc; stroke:none;" d="M146 477L147 478L146 477z"/>
<path style="fill:#94a5db; stroke:none;" d="M353 477L354 478L353 477z"/>
<path style="fill:#abb8e3; stroke:none;" d="M148 478L149 479L148 478z"/>
<path style="fill:#aab7e2; stroke:none;" d="M351 478L352 479L351 478z"/>
<path style="fill:#c0caea; stroke:none;" d="M150 479L151 480L150 479z"/>
<path style="fill:#4f6ac4; stroke:none;" d="M151 479L152 480L151 479z"/>
<path style="fill:#4e69c3; stroke:none;" d="M348 479L349 480L348 479z"/>
<path style="fill:#bec8e9; stroke:none;" d="M349 479L350 480L349 479z"/>
<path style="fill:#647ccb; stroke:none;" d="M153 480L154 481L153 480z"/>
<path style="fill:#6a81cd; stroke:none;" d="M346 480L347 481L346 480z"/>
<path style="fill:#92a2da; stroke:none;" d="M155 481L156 482L155 481z"/>
<path style="fill:#91a2da; stroke:none;" d="M344 481L345 482L344 481z"/>
<path style="fill:#c8d0ec; stroke:none;" d="M157 482L158 483L157 482z"/>
<path style="fill:#687fcc; stroke:none;" d="M158 482L159 483L158 482z"/>
<path style="fill:#677ecc; stroke:none;" d="M341 482L342 483L341 482z"/>
<path style="fill:#c7cfec; stroke:none;" d="M342 482L343 483L342 482z"/>
<path style="fill:#a4b2e0; stroke:none;" d="M160 483L161 484L160 483z"/>
<path style="fill:#4461c0; stroke:none;" d="M161 483L162 484L161 483z"/>
<path style="fill:#4360c0; stroke:none;" d="M338 483L339 484L338 483z"/>
<path style="fill:#a3b1e0; stroke:none;" d="M339 483L340 484L339 483z"/>
<path style="fill:#798ed2; stroke:none;" d="M163 484L164 485L163 484M336 484L337 485L336 484z"/>
<path style="fill:#bec8e9; stroke:none;" d="M165 485L166 486L165 485z"/>
<path style="fill:#6b82cd; stroke:none;" d="M166 485L167 486L166 485z"/>
<path style="fill:#6a81cd; stroke:none;" d="M333 485L334 486L333 485z"/>
<path style="fill:#bcc6e9; stroke:none;" d="M334 485L335 486L334 485z"/>
<path style="fill:#bec8e9; stroke:none;" d="M168 486L169 487L168 486z"/>
<path style="fill:#6b82cd; stroke:none;" d="M169 486L170 487L169 486z"/>
<path style="fill:#6a81cd; stroke:none;" d="M330 486L331 487L330 486z"/>
<path style="fill:#bcc6e9; stroke:none;" d="M331 486L332 487L331 486z"/>
<path style="fill:#b9c4e8; stroke:none;" d="M171 487L172 488L171 487z"/>
<path style="fill:#667ecc; stroke:none;" d="M172 487L173 488L172 487z"/>
<path style="fill:#647ccb; stroke:none;" d="M327 487L328 488L327 487z"/>
<path style="fill:#b7c2e7; stroke:none;" d="M328 487L329 488L328 487z"/>
<path style="fill:#b9c4e8; stroke:none;" d="M174 488L175 489L174 488z"/>
<path style="fill:#667ecc; stroke:none;" d="M175 488L176 489L175 488z"/>
<path style="fill:#647ccb; stroke:none;" d="M324 488L325 489L324 488z"/>
<path style="fill:#b7c2e7; stroke:none;" d="M325 488L326 489L325 488z"/>
<path style="fill:#c3cceb; stroke:none;" d="M177 489L178 490L177 489z"/>
<path style="fill:#7d91d3; stroke:none;" d="M178 489L179 490L178 489z"/>
<path style="fill:#7c90d3; stroke:none;" d="M321 489L322 490L321 489z"/>
<path style="fill:#c2cbea; stroke:none;" d="M322 489L323 490L322 489z"/>
<path style="fill:#a4b2e0; stroke:none;" d="M181 490L182 491L181 490z"/>
<path style="fill:#5e77c9; stroke:none;" d="M182 490L183 491L182 490M317 490L318 491L317 490z"/>
<path style="fill:#a3b1e0; stroke:none;" d="M318 490L319 491L318 490z"/>
<path style="fill:#8699d6; stroke:none;" d="M185 491L186 492L185 491z"/>
<path style="fill:#4461c0; stroke:none;" d="M313 491L314 492L313 491z"/>
<path style="fill:#8a9cd8; stroke:none;" d="M314 491L315 492L314 491z"/>
<path style="fill:#b2bde5; stroke:none;" d="M188 492L189 493L188 492z"/>
<path style="fill:#6c82ce; stroke:none;" d="M189 492L190 493L189 492z"/>
<path style="fill:#6b82cd; stroke:none;" d="M310 492L311 493L310 492z"/>
<path style="fill:#b1bde5; stroke:none;" d="M311 492L312 493L311 492z"/>
<path style="fill:#aab7e2; stroke:none;" d="M192 493L193 494L192 493z"/>
<path style="fill:#7489d0; stroke:none;" d="M193 493L194 494L193 493z"/>
<path style="fill:#a9b6e2; stroke:none;" d="M306.667 493.333C306.222 493.778 307.278 493.722 307.333 493.667C307.778 493.222 306.722 493.278 306.667 493.333z"/>
<path style="fill:#c9d1ed; stroke:none;" d="M196 494L197 495L196 494z"/>
<path style="fill:#93a3db; stroke:none;" d="M197 494L198 495L197 494z"/>
<path style="fill:#5c75c8; stroke:none;" d="M198 494L199 495L198 494z"/>
<path style="fill:#94a5db; stroke:none;" d="M301.667 494.333C301.222 494.778 302.278 494.722 302.333 494.667C302.778 494.222 301.722 494.278 301.667 494.333z"/>
<path style="fill:#8b9dd8; stroke:none;" d="M201.667 495.333C201.222 495.778 202.278 495.722 202.333 495.667C202.778 495.222 201.722 495.278 201.667 495.333z"/>
<path style="fill:#3655bb; stroke:none;" d="M203.667 495.333C203.222 495.778 204.278 495.722 204.333 495.667C204.778 495.222 203.722 495.278 203.667 495.333z"/>
<path style="fill:#6079ca; stroke:none;" d="M295 495C296.248 495.685 296.548 495.749 298 496C296.752 495.315 296.452 495.251 295 495z"/>
<path style="fill:#b7c2e7; stroke:none;" d="M298 495L299 496L298 495z"/>
<path style="fill:#8094d4; stroke:none;" d="M207.667 496.333C207.222 496.778 208.278 496.722 208.333 496.667C208.778 496.222 207.722 496.278 207.667 496.333z"/>
<path style="fill:#2b4cb8; stroke:none;" d="M209.667 496.333C209.222 496.778 210.278 496.722 210.333 496.667C210.778 496.222 209.722 496.278 209.667 496.333z"/>
<path style="fill:#8295d5; stroke:none;" d="M290.667 496.333C290.222 496.778 291.278 496.722 291.333 496.667C291.778 496.222 290.722 496.278 290.667 496.333z"/>
<path style="fill:#d8def2; stroke:none;" d="M292.667 496.333C292.222 496.778 293.278 496.722 293.333 496.667C293.778 496.222 292.722 496.278 292.667 496.333z"/>
<path style="fill:#bdc7e9; stroke:none;" d="M212 497C213.248 497.685 213.548 497.749 215 498C213.752 497.315 213.452 497.251 212 497z"/>
<path style="fill:#6179ca; stroke:none;" d="M215 497C216.248 497.685 216.548 497.749 218 498C216.752 497.315 216.452 497.251 215 497M282.667 497.333C282.222 497.778 283.278 497.722 283.333 497.667C283.778 497.222 282.722 497.278 282.667 497.333z"/>
<path style="fill:#9eadde; stroke:none;" d="M284.667 497.333C284.222 497.778 285.278 497.722 285.333 497.667C285.778 497.222 284.722 497.278 284.667 497.333z"/>
<path style="fill:#dbe1f3; stroke:none;" d="M286.667 497.333C286.222 497.778 287.278 497.722 287.333 497.667C287.778 497.222 286.722 497.278 286.667 497.333z"/>
<path style="fill:#c0caea; stroke:none;" d="M220.667 498.333C220.222 498.778 221.278 498.722 221.333 498.667C221.778 498.222 220.722 498.278 220.667 498.333z"/>
<path style="fill:#8396d5; stroke:none;" d="M222.667 498.333C222.222 498.778 223.278 498.722 223.333 498.667C223.778 498.222 222.722 498.278 222.667 498.333z"/>
<path style="fill:#4763c1; stroke:none;" d="M224.667 498.333C224.222 498.778 225.278 498.722 225.333 498.667C225.778 498.222 224.722 498.278 224.667 498.333z"/>
<path style="fill:#3251ba; stroke:none;" d="M272 498C273.248 498.685 273.548 498.749 275 499C273.752 498.315 273.452 498.251 272 498z"/>
<path style="fill:#8396d5; stroke:none;" d="M275 498C276.248 498.685 276.548 498.749 278 499C276.752 498.315 276.452 498.251 275 498z"/>
<path style="fill:#dee3f4; stroke:none;" d="M278.667 498.333C278.222 498.778 279.278 498.722 279.333 498.667C279.778 498.222 278.722 498.278 278.667 498.333z"/>
<path style="fill:#c3cceb; stroke:none;" d="M230 499C231.248 499.685 231.548 499.749 233 500C231.752 499.315 231.452 499.251 230 499z"/>
<path style="fill:#8699d6; stroke:none;" d="M233.667 499.333C233.222 499.778 234.278 499.722 234.333 499.667C234.778 499.222 233.722 499.278 233.667 499.333z"/>
<path style="fill:#415ebf; stroke:none;" d="M235 499C237.613 500.098 240.165 499.993 243 500C240.387 498.902 237.835 499.007 235 499z"/>
<path style="fill:#2849b7; stroke:none;" d="M252 499C255.432 500.44 259.3 500 263 500C259.568 498.56 255.7 499 252 499z"/>
<path style="fill:#7489d0; stroke:none;" d="M263 499C264.248 499.685 264.548 499.749 266 500C264.752 499.315 264.452 499.251 263 499z"/>
<path style="fill:#b0bce4; stroke:none;" d="M266 499C267.248 499.685 267.548 499.749 269 500C267.752 499.315 267.452 499.251 266 499z"/>
</svg>
