<?xml version="1.0" standalone="yes"?>
<svg xmlns="http://www.w3.org/2000/svg" width="500" height="500">
<path style="fill:#ffffff; stroke:none;" d="M0 0L0 500L500 500L500 0L0 0z"/>
<path style="fill:#ff6e6e; stroke:none;" d="M247.667 1.33334C247.222 1.77795 248.278 1.72205 248.333 1.66666C248.778 1.22247 247.722 1.27762 247.667 1.33334z"/>
<path style="fill:#ff4343; stroke:none;" d="M249 1C250.506 1.68301 251.315 1.8259 253 2C251.494 1.31699 250.685 1.1741 249 1z"/>
<path style="fill:#ff8383; stroke:none;" d="M253 1L254 2L253 1z"/>
<path style="fill:#ff6161; stroke:none;" d="M245 2L246 3L245 2z"/>
<path style="fill:#ff0000; stroke:none;" d="M246 2.63812C240.015 4.35577 234.378 8.66125 229 11.7191L195 31.1505C158.304 52.0963 121.697 73.2039 85 94.1505L47 115.85C42.5657 118.381 34.8556 121.096 32.7423 126.104C30.641 131.084 32 138.68 32 144L32 182L32 315L32 357C32 362.387 30.5829 370.214 33.7423 374.907C36.3223 378.739 41.1231 380.772 45 383L69 396.85C97.7365 413.252 126.295 429.965 155 446.421C178.022 459.62 201.201 472.622 224 486.201C231.12 490.441 243.22 500.663 252 498.486C257.561 497.108 263.055 492.672 268 489.85C279.357 483.367 290.632 476.744 302 470.281C340.045 448.651 377.992 426.845 416 405.15L454 383.421C458.561 380.806 465.546 378.374 467.347 372.957C469.215 367.34 468 359.86 468 354L468 315L468 186L468 143C468 137.296 469.443 129.109 466.142 124.105C463.691 120.389 458.749 118.412 455 116.281L432 103.15C403.661 86.9747 375.222 70.9548 347 54.5756C323.403 40.8807 299.695 27.3748 276 13.8495C267.455 8.97202 256.479 -0.369171 246 2.63812z"/>
<path style="fill:#ff4141; stroke:none;" d="M255 2L256 3L255 2z"/>
<path style="fill:#ffbaba; stroke:none;" d="M256 2L257 3L256 2z"/>
<path style="fill:#ff7575; stroke:none;" d="M243 3L244 4L243 3z"/>
<path style="fill:#ff4c4c; stroke:none;" d="M257 3L258 4L257 3z"/>
<path style="fill:#ff9a9a; stroke:none;" d="M241 4L242 5L241 4z"/>
<path style="fill:#ff7171; stroke:none;" d="M259 4L260 5L259 4z"/>
<path style="fill:#ffc0c0; stroke:none;" d="M239 5L240 6L239 5z"/>
<path style="fill:#ff9696; stroke:none;" d="M261 5L262 6L261 5z"/>
<path style="fill:#ff5252; stroke:none;" d="M238 6L239 7L238 6z"/>
<path style="fill:#ffbcbc; stroke:none;" d="M263 6L264 7L263 6z"/>
<path style="fill:#ff7777; stroke:none;" d="M236 7L237 8L236 7z"/>
<path style="fill:#ff4d4d; stroke:none;" d="M264 7L265 8L264 7z"/>
<path style="fill:#ff9c9c; stroke:none;" d="M234 8L235 9L234 8z"/>
<path style="fill:#ff7272; stroke:none;" d="M266 8L267 9L266 8z"/>
<path style="fill:#ffc4c4; stroke:none;" d="M232 9L233 10L232 9z"/>
<path style="fill:#ff9797; stroke:none;" d="M268 9L269 10L268 9z"/>
<path style="fill:#ff5353; stroke:none;" d="M231 10L232 11L231 10z"/>
<path style="fill:#ffc0c0; stroke:none;" d="M270 10L271 11L270 10z"/>
<path style="fill:#ff7878; stroke:none;" d="M229 11L230 12L229 11z"/>
<path style="fill:#ff4e4e; stroke:none;" d="M271 11L272 12L271 11z"/>
<path style="fill:#ff9d9d; stroke:none;" d="M227 12L228 13L227 12z"/>
<path style="fill:#ff7373; stroke:none;" d="M273 12L274 13L273 12z"/>
<path style="fill:#ffc4c4; stroke:none;" d="M225 13L226 14L225 13z"/>
<path style="fill:#ff9898; stroke:none;" d="M275 13L276 14L275 13z"/>
<path style="fill:#ff5454; stroke:none;" d="M224 14L225 15L224 14z"/>
<path style="fill:#ffc0c0; stroke:none;" d="M277 14L278 15L277 14z"/>
<path style="fill:#ff7979; stroke:none;" d="M222 15L223 16L222 15z"/>
<path style="fill:#ff4f4f; stroke:none;" d="M278 15L279 16L278 15z"/>
<path style="fill:#ff9e9e; stroke:none;" d="M220 16L221 17L220 16z"/>
<path style="fill:#ff7474; stroke:none;" d="M280 16L281 17L280 16z"/>
<path style="fill:#ffc4c4; stroke:none;" d="M218 17L219 18L218 17z"/>
<path style="fill:#ff9999; stroke:none;" d="M282 17L283 18L282 17z"/>
<path style="fill:#ff5555; stroke:none;" d="M217 18L218 19L217 18z"/>
<path style="fill:#ffc0c0; stroke:none;" d="M284 18L285 19L284 18z"/>
<path style="fill:#ff7a7a; stroke:none;" d="M215 19L216 20L215 19z"/>
<path style="fill:#ff5151; stroke:none;" d="M285 19L286 20L285 19z"/>
<path style="fill:#ff9f9f; stroke:none;" d="M213 20L214 21L213 20z"/>
<path style="fill:#ff7676; stroke:none;" d="M287 20L288 21L287 20z"/>
<path style="fill:#ffc4c4; stroke:none;" d="M211 21L212 22L211 21z"/>
<path style="fill:#ff9b9b; stroke:none;" d="M289 21L290 22L289 21z"/>
<path style="fill:#ff5656; stroke:none;" d="M210 22L211 23L210 22z"/>
<path style="fill:#ffc4c4; stroke:none;" d="M291 22L292 23L291 22z"/>
<path style="fill:#ff7b7b; stroke:none;" d="M208 23L209 24L208 23z"/>
<path style="fill:#ff5252; stroke:none;" d="M292 23L293 24L292 23z"/>
<path style="fill:#ffa0a0; stroke:none;" d="M206 24L207 25L206 24z"/>
<path style="fill:#ff7777; stroke:none;" d="M294 24L295 25L294 24z"/>
<path style="fill:#ffc8c8; stroke:none;" d="M204 25L205 26L204 25z"/>
<path style="fill:#ff9c9c; stroke:none;" d="M296 25L297 26L296 25z"/>
<path style="fill:#ff5858; stroke:none;" d="M203 26L204 27L203 26z"/>
<path style="fill:#ffc4c4; stroke:none;" d="M298 26L299 27L298 26z"/>
<path style="fill:#ff7c7c; stroke:none;" d="M201 27L202 28L201 27z"/>
<path style="fill:#ff5353; stroke:none;" d="M299 27L300 28L299 27z"/>
<path style="fill:#ffa1a1; stroke:none;" d="M199 28L200 29L199 28z"/>
<path style="fill:#ff7878; stroke:none;" d="M301 28L302 29L301 28z"/>
<path style="fill:#ffc8c8; stroke:none;" d="M197 29L198 30L197 29z"/>
<path style="fill:#ff9d9d; stroke:none;" d="M303 29L304 30L303 29z"/>
<path style="fill:#ff5959; stroke:none;" d="M196 30L197 31L196 30z"/>
<path style="fill:#ffc4c4; stroke:none;" d="M305 30L306 31L305 30z"/>
<path style="fill:#ff7e7e; stroke:none;" d="M194 31L195 32L194 31z"/>
<path style="fill:#ff5454; stroke:none;" d="M306 31L307 32L306 31z"/>
<path style="fill:#ffa3a3; stroke:none;" d="M192 32L193 33L192 32z"/>
<path style="fill:#ff7979; stroke:none;" d="M308 32L309 33L308 32z"/>
<path style="fill:#ffc8c8; stroke:none;" d="M190 33L191 34L190 33z"/>
<path style="fill:#ff9e9e; stroke:none;" d="M310 33L311 34L310 33z"/>
<path style="fill:#ff5a5a; stroke:none;" d="M189 34L190 35L189 34z"/>
<path style="fill:#ffc4c4; stroke:none;" d="M312 34L313 35L312 34z"/>
<path style="fill:#ff7f7f; stroke:none;" d="M187 35L188 36L187 35z"/>
<path style="fill:#ff5656; stroke:none;" d="M313 35L314 36L313 35z"/>
<path style="fill:#ffa4a4; stroke:none;" d="M185 36L186 37L185 36z"/>
<path style="fill:#ff7b7b; stroke:none;" d="M315 36L316 37L315 36z"/>
<path style="fill:#ff9f9f; stroke:none;" d="M317 37L318 38L317 37z"/>
<path style="fill:#ff5b5b; stroke:none;" d="M182 38L183 39L182 38z"/>
<path style="fill:#ffc8c8; stroke:none;" d="M319 38L320 39L319 38z"/>
<path style="fill:#ff8080; stroke:none;" d="M180 39L181 40L180 39z"/>
<path style="fill:#ff5757; stroke:none;" d="M320 39L321 40L320 39z"/>
<path style="fill:#ffa5a5; stroke:none;" d="M178 40L179 41L178 40z"/>
<path style="fill:#ff7c7c; stroke:none;" d="M322 40L323 41L322 40z"/>
<path style="fill:#ff3737; stroke:none;" d="M177 41L178 42L177 41z"/>
<path style="fill:#ffa1a1; stroke:none;" d="M324 41L325 42L324 41z"/>
<path style="fill:#ff5c5c; stroke:none;" d="M175 42L176 43L175 42z"/>
<path style="fill:#ffc8c8; stroke:none;" d="M326 42L327 43L326 42z"/>
<path style="fill:#ff8181; stroke:none;" d="M173 43L174 44L173 43z"/>
<path style="fill:#ff5858; stroke:none;" d="M327 43L328 44L327 43z"/>
<path style="fill:#ffa6a6; stroke:none;" d="M171 44L172 45L171 44z"/>
<path style="fill:#ff7d7d; stroke:none;" d="M329 44L330 45L329 44z"/>
<path style="fill:#ff3737; stroke:none;" d="M170 45L171 46L170 45z"/>
<path style="fill:#ffa2a2; stroke:none;" d="M331 45L332 46L331 45z"/>
<path style="fill:#ff5d5d; stroke:none;" d="M168 46L169 47L168 46z"/>
<path style="fill:#ffc8c8; stroke:none;" d="M333 46L334 47L333 46z"/>
<path style="fill:#ff8282; stroke:none;" d="M166 47L167 48L166 47z"/>
<path style="fill:#ff5959; stroke:none;" d="M334 47L335 48L334 47z"/>
<path style="fill:#ffa7a7; stroke:none;" d="M164 48L165 49L164 48z"/>
<path style="fill:#ff7e7e; stroke:none;" d="M336 48L337 49L336 48z"/>
<path style="fill:#ff3737; stroke:none;" d="M163 49L164 50L163 49z"/>
<path style="fill:#ffa3a3; stroke:none;" d="M338 49L339 50L338 49z"/>
<path style="fill:#ff5f5f; stroke:none;" d="M161 50L162 51L161 50z"/>
<path style="fill:#ffc8c8; stroke:none;" d="M340 50L341 51L340 50z"/>
<path style="fill:#ff8383; stroke:none;" d="M159 51L160 52L159 51z"/>
<path style="fill:#ff5b5b; stroke:none;" d="M341 51L342 52L341 51z"/>
<path style="fill:#ffa8a8; stroke:none;" d="M157 52L158 53L157 52z"/>
<path style="fill:#ff7f7f; stroke:none;" d="M343 52L344 53L343 52z"/>
<path style="fill:#ff3737; stroke:none;" d="M156 53L157 54L156 53z"/>
<path style="fill:#ffa4a4; stroke:none;" d="M345 53L346 54L345 53z"/>
<path style="fill:#ff6060; stroke:none;" d="M154 54L155 55L154 54z"/>
<path style="fill:#ff3737; stroke:none;" d="M346 54L347 55L346 54z"/>
<path style="fill:#ff8585; stroke:none;" d="M152 55L153 56L152 55z"/>
<path style="fill:#ff5c5c; stroke:none;" d="M348 55L349 56L348 55z"/>
<path style="fill:#ffa9a9; stroke:none;" d="M150 56L151 57L150 56z"/>
<path style="fill:#ff8181; stroke:none;" d="M350 56L351 57L350 56z"/>
<path style="fill:#ff3b3b; stroke:none;" d="M149 57L150 58L149 57z"/>
<path style="fill:#ffa6a6; stroke:none;" d="M352 57L353 58L352 57z"/>
<path style="fill:#ff6161; stroke:none;" d="M147 58L148 59L147 58z"/>
<path style="fill:#ff3737; stroke:none;" d="M353 58L354 59L353 58z"/>
<path style="fill:#ff8686; stroke:none;" d="M145 59L146 60L145 59z"/>
<path style="fill:#ff5d5d; stroke:none;" d="M355 59L356 60L355 59z"/>
<path style="fill:#ffabab; stroke:none;" d="M143 60L144 61L143 60z"/>
<path style="fill:#ff8282; stroke:none;" d="M357 60L358 61L357 60z"/>
<path style="fill:#ff3b3b; stroke:none;" d="M142 61L143 62L142 61z"/>
<path style="fill:#ffa7a7; stroke:none;" d="M359 61L360 62L359 61z"/>
<path style="fill:#ff6262; stroke:none;" d="M140 62L141 63L140 62z"/>
<path style="fill:#ff3737; stroke:none;" d="M360 62L361 63L360 62z"/>
<path style="fill:#ff8787; stroke:none;" d="M138 63L139 64L138 63z"/>
<path style="fill:#ff5e5e; stroke:none;" d="M362 63L363 64L362 63z"/>
<path style="fill:#ffacac; stroke:none;" d="M136 64L137 65L136 64z"/>
<path style="fill:#ff8383; stroke:none;" d="M364 64L365 65L364 64z"/>
<path style="fill:#ff3b3b; stroke:none;" d="M135 65L136 66L135 65z"/>
<path style="fill:#ffa8a8; stroke:none;" d="M366 65L367 66L366 65z"/>
<path style="fill:#ff6363; stroke:none;" d="M133 66L134 67L133 66z"/>
<path style="fill:#ff3737; stroke:none;" d="M367 66L368 67L367 66z"/>
<path style="fill:#ff8888; stroke:none;" d="M131 67L132 68L131 67z"/>
<path style="fill:#ff5f5f; stroke:none;" d="M369 67L370 68L369 67z"/>
<path style="fill:#ffadad; stroke:none;" d="M129 68L130 69L129 68z"/>
<path style="fill:#ff8484; stroke:none;" d="M371 68L372 69L371 68z"/>
<path style="fill:#ff3b3b; stroke:none;" d="M128 69L129 70L128 69z"/>
<path style="fill:#ffa9a9; stroke:none;" d="M373 69L374 70L373 69z"/>
<path style="fill:#ff6464; stroke:none;" d="M126 70L127 71L126 70z"/>
<path style="fill:#ff3b3b; stroke:none;" d="M374 70L375 71L374 70z"/>
<path style="fill:#ff8989; stroke:none;" d="M124 71L125 72L124 71z"/>
<path style="fill:#ff6161; stroke:none;" d="M376 71L377 72L376 71z"/>
<path style="fill:#ffaeae; stroke:none;" d="M122 72L123 73L122 72z"/>
<path style="fill:#ff8686; stroke:none;" d="M378 72L379 73L378 72z"/>
<path style="fill:#ff3f3f; stroke:none;" d="M121 73L122 74L121 73z"/>
<path style="fill:#ffabab; stroke:none;" d="M380 73L381 74L380 73z"/>
<path style="fill:#ff6666; stroke:none;" d="M119 74L120 75L119 74z"/>
<path style="fill:#ff3b3b; stroke:none;" d="M381 74L382 75L381 74z"/>
<path style="fill:#ff8a8a; stroke:none;" d="M117 75L118 76L117 75z"/>
<path style="fill:#ff6262; stroke:none;" d="M383 75L384 76L383 75z"/>
<path style="fill:#ffafaf; stroke:none;" d="M115 76L116 77L115 76z"/>
<path style="fill:#ff8787; stroke:none;" d="M385 76L386 77L385 76z"/>
<path style="fill:#ff3f3f; stroke:none;" d="M114 77L115 78L114 77z"/>
<path style="fill:#ffacac; stroke:none;" d="M387 77L388 78L387 77z"/>
<path style="fill:#ff6767; stroke:none;" d="M112 78L113 79L112 78z"/>
<path style="fill:#ff3b3b; stroke:none;" d="M388 78L389 79L388 78z"/>
<path style="fill:#ff8c8c; stroke:none;" d="M110 79L111 80L110 79z"/>
<path style="fill:#ff6363; stroke:none;" d="M390 79L391 80L390 79z"/>
<path style="fill:#ffb0b0; stroke:none;" d="M108 80L109 81L108 80z"/>
<path style="fill:#ff8888; stroke:none;" d="M392 80L393 81L392 80z"/>
<path style="fill:#ff3f3f; stroke:none;" d="M107 81L108 82L107 81z"/>
<path style="fill:#ffadad; stroke:none;" d="M394 81L395 82L394 81z"/>
<path style="fill:#ff6868; stroke:none;" d="M105 82L106 83L105 82z"/>
<path style="fill:#ff3b3b; stroke:none;" d="M395 82L396 83L395 82z"/>
<path style="fill:#ff8d8d; stroke:none;" d="M103 83L104 84L103 83z"/>
<path style="fill:#ff6464; stroke:none;" d="M397 83L398 84L397 83z"/>
<path style="fill:#ffb2b2; stroke:none;" d="M101 84L102 85L101 84z"/>
<path style="fill:#ff8989; stroke:none;" d="M399 84L400 85L399 84z"/>
<path style="fill:#ff3f3f; stroke:none;" d="M100 85L101 86L100 85z"/>
<path style="fill:#ffaeae; stroke:none;" d="M401 85L402 86L401 85z"/>
<path style="fill:#ff6969; stroke:none;" d="M98 86L99 87L98 86z"/>
<path style="fill:#ff3f3f; stroke:none;" d="M402 86L403 87L402 86z"/>
<path style="fill:#ff8e8e; stroke:none;" d="M96 87L97 88L96 87z"/>
<path style="fill:#ff6666; stroke:none;" d="M404 87L405 88L404 87z"/>
<path style="fill:#ffb3b3; stroke:none;" d="M94 88L95 89L94 88z"/>
<path style="fill:#ff8b8b; stroke:none;" d="M406 88L407 89L406 88z"/>
<path style="fill:#ff4343; stroke:none;" d="M93 89L94 90L93 89z"/>
<path style="fill:#ffb0b0; stroke:none;" d="M408 89L409 90L408 89z"/>
<path style="fill:#ff6a6a; stroke:none;" d="M91 90L92 91L91 90z"/>
<path style="fill:#ff3f3f; stroke:none;" d="M409 90L410 91L409 90z"/>
<path style="fill:#ff8f8f; stroke:none;" d="M89 91L90 92L89 91z"/>
<path style="fill:#ff6767; stroke:none;" d="M411 91L412 92L411 91z"/>
<path style="fill:#ffb4b4; stroke:none;" d="M87 92L88 93L87 92z"/>
<path style="fill:#ff8c8c; stroke:none;" d="M413 92L414 93L413 92z"/>
<path style="fill:#ff4343; stroke:none;" d="M86 93L87 94L86 93z"/>
<path style="fill:#ffb1b1; stroke:none;" d="M415 93L416 94L415 93z"/>
<path style="fill:#ff6b6b; stroke:none;" d="M84 94L85 95L84 94z"/>
<path style="fill:#ff3f3f; stroke:none;" d="M416 94L417 95L416 94z"/>
<path style="fill:#ff9090; stroke:none;" d="M82 95L83 96L82 95z"/>
<path style="fill:#ff6868; stroke:none;" d="M418 95L419 96L418 95z"/>
<path style="fill:#ffb5b5; stroke:none;" d="M80 96L81 97L80 96z"/>
<path style="fill:#ff8d8d; stroke:none;" d="M420 96L421 97L420 96z"/>
<path style="fill:#ff4343; stroke:none;" d="M79 97L80 98L79 97z"/>
<path style="fill:#ffb2b2; stroke:none;" d="M422 97L423 98L422 97z"/>
<path style="fill:#ff6c6c; stroke:none;" d="M77 98L78 99L77 98z"/>
<path style="fill:#ff4343; stroke:none;" d="M423 98L424 99L423 98z"/>
<path style="fill:#ff9191; stroke:none;" d="M75 99L76 100L75 99z"/>
<path style="fill:#ff6969; stroke:none;" d="M425 99L426 100L425 99z"/>
<path style="fill:#ffbcbc; stroke:none;" d="M73 100L74 101L73 100z"/>
<path style="fill:#ff8e8e; stroke:none;" d="M427 100L428 101L427 100z"/>
<path style="fill:#ff4949; stroke:none;" d="M72 101L73 102L72 101z"/>
<path style="fill:#ffb3b3; stroke:none;" d="M429 101L430 102L429 101z"/>
<path style="fill:#ff6e6e; stroke:none;" d="M70 102L71 103L70 102z"/>
<path style="fill:#ff4343; stroke:none;" d="M430 102L431 103L430 102z"/>
<path style="fill:#ff9393; stroke:none;" d="M68 103L69 104L68 103z"/>
<path style="fill:#ff6b6b; stroke:none;" d="M432 103L433 104L432 103z"/>
<path style="fill:#ffbcbc; stroke:none;" d="M66 104L67 105L66 104z"/>
<path style="fill:#ff9090; stroke:none;" d="M434 104L435 105L434 104z"/>
<path style="fill:#ff4a4a; stroke:none;" d="M65 105L66 106L65 105z"/>
<path style="fill:#ffb4b4; stroke:none;" d="M436 105L437 106L436 105z"/>
<path style="fill:#ff6f6f; stroke:none;" d="M63 106L64 107L63 106z"/>
<path style="fill:#ff4343; stroke:none;" d="M437 106L438 107L437 106z"/>
<path style="fill:#ff9494; stroke:none;" d="M61 107L62 108L61 107z"/>
<path style="fill:#ff6c6c; stroke:none;" d="M439 107L440 108L439 107z"/>
<path style="fill:#ffbcbc; stroke:none;" d="M59 108L60 109L59 108z"/>
<path style="fill:#ff9191; stroke:none;" d="M441 108L442 109L441 108z"/>
<path style="fill:#ff4b4b; stroke:none;" d="M58 109L59 110L58 109z"/>
<path style="fill:#ffb6b6; stroke:none;" d="M443 109L444 110L443 109z"/>
<path style="fill:#ff7070; stroke:none;" d="M56 110L57 111L56 110z"/>
<path style="fill:#ff4343; stroke:none;" d="M444 110L445 111L444 110z"/>
<path style="fill:#ff9595; stroke:none;" d="M54 111L55 112L54 111z"/>
<path style="fill:#ff6d6d; stroke:none;" d="M446 111L447 112L446 111z"/>
<path style="fill:#ffbcbc; stroke:none;" d="M52 112L53 113L52 112z"/>
<path style="fill:#ff9292; stroke:none;" d="M448 112L449 113L448 112z"/>
<path style="fill:#ff4c4c; stroke:none;" d="M51 113L52 114L51 113z"/>
<path style="fill:#ffbcbc; stroke:none;" d="M450 113L451 114L450 113z"/>
<path style="fill:#ff7171; stroke:none;" d="M49 114L50 115L49 114z"/>
<path style="fill:#ff4949; stroke:none;" d="M451 114L452 115L451 114z"/>
<path style="fill:#ff9696; stroke:none;" d="M47 115L48 116L47 115z"/>
<path style="fill:#ff6e6e; stroke:none;" d="M453 115L454 116L453 115z"/>
<path style="fill:#ffc0c0; stroke:none;" d="M45 116L46 117L45 116z"/>
<path style="fill:#ff9393; stroke:none;" d="M455 116L456 117L455 116z"/>
<path style="fill:#ff4d4d; stroke:none;" d="M44 117L45 118L44 117z"/>
<path style="fill:#ffbcbc; stroke:none;" d="M457 117L458 118L457 117z"/>
<path style="fill:#ff7272; stroke:none;" d="M42 118L43 119L42 118z"/>
<path style="fill:#ff4b4b; stroke:none;" d="M458 118L459 119L458 118z"/>
<path style="fill:#ff9797; stroke:none;" d="M40 119L41 120L40 119z"/>
<path style="fill:#ff7070; stroke:none;" d="M460 119L461 120L460 119z"/>
<path style="fill:#ffc0c0; stroke:none;" d="M38 120L39 121L38 120z"/>
<path style="fill:#ff9494; stroke:none;" d="M462 120L463 121L462 120z"/>
<path style="fill:#ffc1c1; stroke:none;" d="M36 121L37 122L36 121z"/>
<path style="fill:#ff4b4b; stroke:none;" d="M37 121L38 122L37 121z"/>
<path style="fill:#ff4343; stroke:none;" d="M35 122L36 123L35 122z"/>
<path style="fill:#ff9a9a; stroke:none;" d="M465 122L466 123L465 122z"/>
<path style="fill:#ffc5c5; stroke:none;" d="M33 123L34 124L33 123z"/>
<path style="fill:#ffbbbb; stroke:none;" d="M466 123L467 124L466 123z"/>
<path style="fill:#ff4f4f; stroke:none;" d="M32 125L33 126L32 125z"/>
<path style="fill:#ff9595; stroke:none;" d="M467 125L468 126L467 125z"/>
<path style="fill:#ff4444; stroke:none;" d="M467 126L468 127L467 126z"/>
<path style="fill:#ff9898; stroke:none;" d="M31 127L31 371C33.3949 365.293 32 357.154 32 351L32 310L32 181L32 145C32 139.381 33.1889 132.216 31 127z"/>
<path style="fill:#ffdddd; stroke:none;" d="M468 128L468 372C470.189 366.784 469 359.619 469 354L469 318L469 189L469 148C469 141.846 470.395 133.707 468 128z"/>
<path style="fill:#ff4040; stroke:none;" d="M218 130C223.951 132.497 232.58 131 239 131L283 131C277.049 128.503 268.42 130 262 130L218 130z"/>
<path style="fill:#ff3737; stroke:none;" d="M215 131L216 132L215 131z"/>
<path style="fill:#ffffff; stroke:none;" d="M216.318 132.028C211.81 135.036 214 147.259 214 152L214 195C214 199.503 215.571 207.787 212.972 211.682C209.964 216.19 197.741 214 193 214L152 214C146.926 214 138.918 212.489 134.228 214.603C130.974 216.071 131.046 219.953 131.004 223C130.897 230.663 131 238.336 131 246L131 273C131 276.156 130.179 280.912 132.028 283.682C135.036 288.19 147.259 286 152 286L195 286C199.503 286 207.787 284.429 211.682 287.028C216.078 289.961 214 301.4 214 306L214 351C214 355.241 212.337 364.13 215.603 367.397C218.188 369.981 223.694 369 227 369L257 369L275 369C277.67 368.999 281.333 369.54 283.682 367.972C288.19 364.964 286 352.741 286 348L286 305C286 300.497 284.429 292.213 287.028 288.318C290.036 283.81 302.259 286 307 286L348 286C353.145 286 361.074 287.483 365.852 285.397C369.213 283.929 368.978 280.102 368.999 277C369.052 269.334 369 261.666 369 254L369 228C369 224.516 369.862 219.377 367.821 216.318C364.815 211.813 352.742 214 348 214L305 214C300.497 214 292.213 215.571 288.318 212.972C283.922 210.039 286 198.6 286 194L286 149C286 144.759 287.663 135.87 284.397 132.603C281.812 130.019 276.306 131 273 131L243 131L225 131C222.33 131.001 218.667 130.46 216.318 132.028z"/>
<path style="fill:#ff3737; stroke:none;" d="M284 131L285 132L284 131z"/>
<path style="fill:#ff3d3d; stroke:none;" d="M214 132L215 133L214 132z"/>
<path style="fill:#ff3c3c; stroke:none;" d="M285 132L286 133L285 132z"/>
<path style="fill:#ff6f6f; stroke:none;" d="M213 134L214 135L213 134z"/>
<path style="fill:#ff6464; stroke:none;" d="M286 134L287 135L286 134z"/>
<path style="fill:#ffd1d1; stroke:none;" d="M213 135L213 213C215.292 207.538 214 199.887 214 194L214 155C214 148.846 215.395 140.707 213 135z"/>
<path style="fill:#ffdcdc; stroke:none;" d="M286 135L286 213C288.292 207.538 287 199.887 287 194L287 155C287 148.846 288.395 140.707 286 135z"/>
<path style="fill:#ff5a5a; stroke:none;" d="M134 213L135 214L134 213z"/>
<path style="fill:#ffc0c0; stroke:none;" d="M135 213C141.678 215.802 151.784 214 159 214L213 214C206.322 211.198 196.216 213 189 213L135 213M287 213C293.678 215.802 303.784 214 311 214L365 214C358.322 211.198 348.216 213 341 213L287 213z"/>
<path style="fill:#ff5d5d; stroke:none;" d="M365 213L366 214L365 213z"/>
<path style="fill:#ffbebe; stroke:none;" d="M131 216L132 217L131 216z"/>
<path style="fill:#ffb6b6; stroke:none;" d="M368 216L369 217L368 216z"/>
<path style="fill:#ff3b3b; stroke:none;" d="M130 218L130 282C132.085 277.031 131 270.35 131 265L131 234C131 228.92 131.981 222.72 130 218z"/>
<path style="fill:#ff4444; stroke:none;" d="M369 218L369 282C371.085 277.031 370 270.35 370 265L370 234C370 228.92 370.981 222.72 369 218z"/>
<path style="fill:#ff3d3d; stroke:none;" d="M131 284L132 285L131 284z"/>
<path style="fill:#ff3a3a; stroke:none;" d="M368 284L369 285L368 284z"/>
<path style="fill:#ff3737; stroke:none;" d="M132 285L133 286L132 285z"/>
<path style="fill:#ffc0c0; stroke:none;" d="M134 286C140.919 288.903 151.52 287 159 287L213 287C206.081 284.097 195.48 286 188 286L134 286M287 286C293.678 288.802 303.784 287 311 287L365 287C358.322 284.198 348.216 286 341 286L287 286z"/>
<path style="fill:#ff8787; stroke:none;" d="M365 286L366 287L365 286z"/>
<path style="fill:#ffd1d1; stroke:none;" d="M213 287L213 365C215.395 359.293 214 351.154 214 345L214 306C214 300.113 215.292 292.462 213 287z"/>
<path style="fill:#ffdcdc; stroke:none;" d="M286 287L286 365C288.292 359.538 287 351.887 287 346L287 307C287 300.846 288.395 292.707 286 287z"/>
<path style="fill:#ff7f7f; stroke:none;" d="M213 365L214 366L213 365z"/>
<path style="fill:#ff8484; stroke:none;" d="M286 365L287 366L286 365z"/>
<path style="fill:#ff5353; stroke:none;" d="M214 367L215 368L214 367z"/>
<path style="fill:#ff5151; stroke:none;" d="M285 367L286 368L285 367z"/>
<path style="fill:#ff3d3d; stroke:none;" d="M215 368L216 369L215 368z"/>
<path style="fill:#ff3838; stroke:none;" d="M284 368L285 369L284 368z"/>
<path style="fill:#ff4040; stroke:none;" d="M217 369C222.951 371.497 231.58 370 238 370L283 370C277.049 367.503 268.42 369 262 369L217 369z"/>
<path style="fill:#ff7373; stroke:none;" d="M32 373L33 374L32 373z"/>
<path style="fill:#ff3b3b; stroke:none;" d="M467 373L468 374L467 373z"/>
<path style="fill:#ffa9a9; stroke:none;" d="M467 374L468 375L467 374z"/>
<path style="fill:#ffbfbf; stroke:none;" d="M33 375L34 376L33 375z"/>
<path style="fill:#ff3a3a; stroke:none;" d="M466 375L467 376L466 375z"/>
<path style="fill:#ffa2a2; stroke:none;" d="M34 376L35 377L34 376z"/>
<path style="fill:#ffa8a8; stroke:none;" d="M35 377L36 378L35 377z"/>
<path style="fill:#ff3737; stroke:none;" d="M464 377L465 378L464 377z"/>
<path style="fill:#ff4f4f; stroke:none;" d="M37 378L38 379L37 378z"/>
<path style="fill:#ff5d5d; stroke:none;" d="M462 378L463 379L462 378z"/>
<path style="fill:#ffb4b4; stroke:none;" d="M463 378L464 379L463 378z"/>
<path style="fill:#ffc0c0; stroke:none;" d="M38 379L39 380L38 379z"/>
<path style="fill:#ff5353; stroke:none;" d="M460 379L461 380L460 379z"/>
<path style="fill:#ff9494; stroke:none;" d="M40 380L41 381L40 380z"/>
<path style="fill:#ffc4c4; stroke:none;" d="M459 380L460 381L459 380z"/>
<path style="fill:#ff6d6d; stroke:none;" d="M42 381L43 382L42 381z"/>
<path style="fill:#ff9b9b; stroke:none;" d="M457 381L458 382L457 381z"/>
<path style="fill:#ff4343; stroke:none;" d="M44 382L45 383L44 382z"/>
<path style="fill:#ff7676; stroke:none;" d="M455 382L456 383L455 382z"/>
<path style="fill:#ffb2b2; stroke:none;" d="M45 383L46 384L45 383z"/>
<path style="fill:#ff5151; stroke:none;" d="M453 383L454 384L453 383z"/>
<path style="fill:#ff8b8b; stroke:none;" d="M47 384L48 385L47 384z"/>
<path style="fill:#ffc0c0; stroke:none;" d="M452 384L453 385L452 384z"/>
<path style="fill:#ff6464; stroke:none;" d="M49 385L50 386L49 385z"/>
<path style="fill:#ff9a9a; stroke:none;" d="M450 385L451 386L450 385z"/>
<path style="fill:#ff3b3b; stroke:none;" d="M51 386L52 387L51 386z"/>
<path style="fill:#ff7575; stroke:none;" d="M448 386L449 387L448 386z"/>
<path style="fill:#ffa9a9; stroke:none;" d="M52 387L53 388L52 387z"/>
<path style="fill:#ff5050; stroke:none;" d="M446 387L447 388L446 387z"/>
<path style="fill:#ff8282; stroke:none;" d="M54 388L55 389L54 388z"/>
<path style="fill:#ffc0c0; stroke:none;" d="M445 388L446 389L445 388z"/>
<path style="fill:#ff5b5b; stroke:none;" d="M56 389L57 390L56 389z"/>
<path style="fill:#ff9999; stroke:none;" d="M443 389L444 390L443 389z"/>
<path style="fill:#ffc8c8; stroke:none;" d="M57 390L58 391L57 390z"/>
<path style="fill:#ff7474; stroke:none;" d="M441 390L442 391L441 390z"/>
<path style="fill:#ffa0a0; stroke:none;" d="M59 391L60 392L59 391z"/>
<path style="fill:#ff4f4f; stroke:none;" d="M439 391L440 392L439 391z"/>
<path style="fill:#ff7979; stroke:none;" d="M61 392L62 393L61 392z"/>
<path style="fill:#ffc0c0; stroke:none;" d="M438 392L439 393L438 392z"/>
<path style="fill:#ff5252; stroke:none;" d="M63 393L64 394L63 393z"/>
<path style="fill:#ff9898; stroke:none;" d="M436 393L437 394L436 393z"/>
<path style="fill:#ffc0c0; stroke:none;" d="M64 394L65 395L64 394z"/>
<path style="fill:#ff7373; stroke:none;" d="M434 394L435 395L434 394z"/>
<path style="fill:#ff9797; stroke:none;" d="M66 395L67 396L66 395z"/>
<path style="fill:#ff4e4e; stroke:none;" d="M432 395L433 396L432 395z"/>
<path style="fill:#ff7070; stroke:none;" d="M68 396L69 397L68 396z"/>
<path style="fill:#ffc0c0; stroke:none;" d="M431 396L432 397L431 396z"/>
<path style="fill:#ff4343; stroke:none;" d="M70 397L71 398L70 397z"/>
<path style="fill:#ff9797; stroke:none;" d="M429 397L430 398L429 397z"/>
<path style="fill:#ffb6b6; stroke:none;" d="M71 398L72 399L71 398z"/>
<path style="fill:#ff7272; stroke:none;" d="M427 398L428 399L427 398z"/>
<path style="fill:#ff8e8e; stroke:none;" d="M73 399L74 400L73 399z"/>
<path style="fill:#ff4d4d; stroke:none;" d="M425 399L426 400L425 399z"/>
<path style="fill:#ff6767; stroke:none;" d="M75 400L76 401L75 400z"/>
<path style="fill:#ffbcbc; stroke:none;" d="M424 400L425 401L424 400z"/>
<path style="fill:#ff3f3f; stroke:none;" d="M77 401L78 402L77 401z"/>
<path style="fill:#ff9595; stroke:none;" d="M422 401L423 402L422 401z"/>
<path style="fill:#ffadad; stroke:none;" d="M78 402L79 403L78 402z"/>
<path style="fill:#ff7171; stroke:none;" d="M420 402L421 403L420 402z"/>
<path style="fill:#ff8585; stroke:none;" d="M80 403L81 404L80 403z"/>
<path style="fill:#ff4c4c; stroke:none;" d="M418 403L419 404L418 403z"/>
<path style="fill:#ff5e5e; stroke:none;" d="M82 404L83 405L82 404z"/>
<path style="fill:#ffbcbc; stroke:none;" d="M417 404L418 405L417 404z"/>
<path style="fill:#ff3737; stroke:none;" d="M84 405L85 406L84 405z"/>
<path style="fill:#ff9494; stroke:none;" d="M415 405L416 406L415 405z"/>
<path style="fill:#ffa4a4; stroke:none;" d="M85 406L86 407L85 406z"/>
<path style="fill:#ff6f6f; stroke:none;" d="M413 406L414 407L413 406z"/>
<path style="fill:#ff7c7c; stroke:none;" d="M87 407L88 408L87 407z"/>
<path style="fill:#ff4b4b; stroke:none;" d="M411 407L412 408L411 407z"/>
<path style="fill:#ff5555; stroke:none;" d="M89 408L90 409L89 408z"/>
<path style="fill:#ffbcbc; stroke:none;" d="M410 408L411 409L410 408z"/>
<path style="fill:#ffc4c4; stroke:none;" d="M90 409L91 410L90 409z"/>
<path style="fill:#ff9393; stroke:none;" d="M408 409L409 410L408 409z"/>
<path style="fill:#ff9b9b; stroke:none;" d="M92 410L93 411L92 410z"/>
<path style="fill:#ff6e6e; stroke:none;" d="M406 410L407 411L406 410z"/>
<path style="fill:#ff7373; stroke:none;" d="M94 411L95 412L94 411z"/>
<path style="fill:#ff4949; stroke:none;" d="M404 411L405 412L404 411z"/>
<path style="fill:#ff4c4c; stroke:none;" d="M96 412L97 413L96 412z"/>
<path style="fill:#ffbcbc; stroke:none;" d="M403 412L404 413L403 412M97 413L98 414L97 413z"/>
<path style="fill:#ff9292; stroke:none;" d="M401 413L402 414L401 413z"/>
<path style="fill:#ff9191; stroke:none;" d="M99 414L100 415L99 414z"/>
<path style="fill:#ff6d6d; stroke:none;" d="M399 414L400 415L399 414z"/>
<path style="fill:#ff6a6a; stroke:none;" d="M101 415L102 416L101 415z"/>
<path style="fill:#ff4343; stroke:none;" d="M397 415L398 416L397 415z"/>
<path style="fill:#ff3f3f; stroke:none;" d="M103 416L104 417L103 416z"/>
<path style="fill:#ffb6b6; stroke:none;" d="M396 416L397 417L396 416z"/>
<path style="fill:#ffb0b0; stroke:none;" d="M104 417L105 418L104 417z"/>
<path style="fill:#ff9191; stroke:none;" d="M394 417L395 418L394 417z"/>
<path style="fill:#ff8888; stroke:none;" d="M106 418L107 419L106 418z"/>
<path style="fill:#ff6c6c; stroke:none;" d="M392 418L393 419L392 418z"/>
<path style="fill:#ff6161; stroke:none;" d="M108 419L109 420L108 419z"/>
<path style="fill:#ff4343; stroke:none;" d="M390 419L391 420L390 419z"/>
<path style="fill:#ff3737; stroke:none;" d="M110 420L111 421L110 420z"/>
<path style="fill:#ffb5b5; stroke:none;" d="M389 420L390 421L389 420z"/>
<path style="fill:#ffa7a7; stroke:none;" d="M111 421L112 422L111 421z"/>
<path style="fill:#ff9090; stroke:none;" d="M387 421L388 422L387 421z"/>
<path style="fill:#ff7f7f; stroke:none;" d="M113 422L114 423L113 422z"/>
<path style="fill:#ff6b6b; stroke:none;" d="M385 422L386 423L385 422z"/>
<path style="fill:#ff5858; stroke:none;" d="M115 423L116 424L115 423z"/>
<path style="fill:#ff4343; stroke:none;" d="M383 423L384 424L383 423z"/>
<path style="fill:#ffc8c8; stroke:none;" d="M116 424L117 425L116 424z"/>
<path style="fill:#ffb3b3; stroke:none;" d="M382 424L383 425L382 424z"/>
<path style="fill:#ff9e9e; stroke:none;" d="M118 425L119 426L118 425z"/>
<path style="fill:#ff8f8f; stroke:none;" d="M380 425L381 426L380 425z"/>
<path style="fill:#ff7676; stroke:none;" d="M120 426L121 427L120 426z"/>
<path style="fill:#ff6a6a; stroke:none;" d="M378 426L379 427L378 426z"/>
<path style="fill:#ff4f4f; stroke:none;" d="M122 427L123 428L122 427z"/>
<path style="fill:#ff4343; stroke:none;" d="M376 427L377 428L376 427z"/>
<path style="fill:#ffc0c0; stroke:none;" d="M123 428L124 429L123 428z"/>
<path style="fill:#ffb2b2; stroke:none;" d="M375 428L376 429L375 428z"/>
<path style="fill:#ff9595; stroke:none;" d="M125 429L126 430L125 429z"/>
<path style="fill:#ff8d8d; stroke:none;" d="M373 429L374 430L373 429z"/>
<path style="fill:#ff6d6d; stroke:none;" d="M127 430L128 431L127 430z"/>
<path style="fill:#ff6868; stroke:none;" d="M371 430L372 431L371 430z"/>
<path style="fill:#ff4343; stroke:none;" d="M129 431L130 432L129 431z"/>
<path style="fill:#ff3f3f; stroke:none;" d="M369 431L370 432L369 431z"/>
<path style="fill:#ffb3b3; stroke:none;" d="M130 432L131 433L130 432z"/>
<path style="fill:#ffb1b1; stroke:none;" d="M368 432L369 433L368 432z"/>
<path style="fill:#ff8c8c; stroke:none;" d="M132 433L133 434L132 433M366 433L367 434L366 433z"/>
<path style="fill:#ff6464; stroke:none;" d="M134 434L135 435L134 434z"/>
<path style="fill:#ff6767; stroke:none;" d="M364 434L365 435L364 434z"/>
<path style="fill:#ff3b3b; stroke:none;" d="M136 435L137 436L136 435z"/>
<path style="fill:#ff3f3f; stroke:none;" d="M362 435L363 436L362 435z"/>
<path style="fill:#ffaaaa; stroke:none;" d="M137 436L138 437L137 436z"/>
<path style="fill:#ffb0b0; stroke:none;" d="M361 436L362 437L361 436z"/>
<path style="fill:#ff8383; stroke:none;" d="M139 437L140 438L139 437z"/>
<path style="fill:#ff8b8b; stroke:none;" d="M359 437L360 438L359 437z"/>
<path style="fill:#ff5b5b; stroke:none;" d="M141 438L142 439L141 438z"/>
<path style="fill:#ff6666; stroke:none;" d="M357 438L358 439L357 438z"/>
<path style="fill:#ffc8c8; stroke:none;" d="M142 439L143 440L142 439z"/>
<path style="fill:#ff3f3f; stroke:none;" d="M355 439L356 440L355 439z"/>
<path style="fill:#ffa1a1; stroke:none;" d="M144 440L145 441L144 440z"/>
<path style="fill:#ffafaf; stroke:none;" d="M354 440L355 441L354 440z"/>
<path style="fill:#ff7a7a; stroke:none;" d="M146 441L147 442L146 441z"/>
<path style="fill:#ff8a8a; stroke:none;" d="M352 441L353 442L352 441z"/>
<path style="fill:#ff5252; stroke:none;" d="M148 442L149 443L148 442z"/>
<path style="fill:#ff6565; stroke:none;" d="M350 442L351 443L350 442z"/>
<path style="fill:#ffc0c0; stroke:none;" d="M149 443L150 444L149 443z"/>
<path style="fill:#ff3f3f; stroke:none;" d="M348 443L349 444L348 443z"/>
<path style="fill:#ff9898; stroke:none;" d="M151 444L152 445L151 444z"/>
<path style="fill:#ffaeae; stroke:none;" d="M347 444L348 445L347 444z"/>
<path style="fill:#ff7171; stroke:none;" d="M153 445L154 446L153 445z"/>
<path style="fill:#ff8989; stroke:none;" d="M345 445L346 446L345 445z"/>
<path style="fill:#ff4949; stroke:none;" d="M155 446L156 447L155 446z"/>
<path style="fill:#ff6464; stroke:none;" d="M343 446L344 447L343 446z"/>
<path style="fill:#ffbcbc; stroke:none;" d="M156 447L157 448L156 447z"/>
<path style="fill:#ff3b3b; stroke:none;" d="M341 447L342 448L341 447z"/>
<path style="fill:#ff8f8f; stroke:none;" d="M158 448L159 449L158 448z"/>
<path style="fill:#ffacac; stroke:none;" d="M340 448L341 449L340 448z"/>
<path style="fill:#ff6767; stroke:none;" d="M160 449L161 450L160 449z"/>
<path style="fill:#ff8888; stroke:none;" d="M338 449L339 450L338 449z"/>
<path style="fill:#ff3f3f; stroke:none;" d="M162 450L163 451L162 450z"/>
<path style="fill:#ff6363; stroke:none;" d="M336 450L337 451L336 450z"/>
<path style="fill:#ffadad; stroke:none;" d="M163 451L164 452L163 451z"/>
<path style="fill:#ff3b3b; stroke:none;" d="M334 451L335 452L334 451z"/>
<path style="fill:#ff8686; stroke:none;" d="M165 452L166 453L165 452z"/>
<path style="fill:#ffabab; stroke:none;" d="M333 452L334 453L333 452z"/>
<path style="fill:#ff5e5e; stroke:none;" d="M167 453L168 454L167 453z"/>
<path style="fill:#ff8686; stroke:none;" d="M331 453L332 454L331 453z"/>
<path style="fill:#ff3737; stroke:none;" d="M169 454L170 455L169 454z"/>
<path style="fill:#ff6161; stroke:none;" d="M329 454L330 455L329 454z"/>
<path style="fill:#ffa4a4; stroke:none;" d="M170 455L171 456L170 455z"/>
<path style="fill:#ff3b3b; stroke:none;" d="M327 455L328 456L327 455z"/>
<path style="fill:#ff7d7d; stroke:none;" d="M172 456L173 457L172 456z"/>
<path style="fill:#ffaaaa; stroke:none;" d="M326 456L327 457L326 456z"/>
<path style="fill:#ff5555; stroke:none;" d="M174 457L175 458L174 457z"/>
<path style="fill:#ff8585; stroke:none;" d="M324 457L325 458L324 457z"/>
<path style="fill:#ffc4c4; stroke:none;" d="M175 458L176 459L175 458z"/>
<path style="fill:#ff6060; stroke:none;" d="M322 458L323 459L322 458z"/>
<path style="fill:#ff9b9b; stroke:none;" d="M177 459L178 460L177 459z"/>
<path style="fill:#ff3b3b; stroke:none;" d="M320 459L321 460L320 459z"/>
<path style="fill:#ff7474; stroke:none;" d="M179 460L180 461L179 460z"/>
<path style="fill:#ffa9a9; stroke:none;" d="M319 460L320 461L319 460z"/>
<path style="fill:#ff4c4c; stroke:none;" d="M181 461L182 462L181 461z"/>
<path style="fill:#ff8484; stroke:none;" d="M317 461L318 462L317 461z"/>
<path style="fill:#ffbcbc; stroke:none;" d="M182 462L183 463L182 462z"/>
<path style="fill:#ff5f5f; stroke:none;" d="M315 462L316 463L315 462z"/>
<path style="fill:#ff9292; stroke:none;" d="M184 463L185 464L184 463z"/>
<path style="fill:#ff3737; stroke:none;" d="M313 463L314 464L313 463z"/>
<path style="fill:#ff6b6b; stroke:none;" d="M186 464L187 465L186 464z"/>
<path style="fill:#ffa8a8; stroke:none;" d="M312 464L313 465L312 464z"/>
<path style="fill:#ff3f3f; stroke:none;" d="M188 465L189 466L188 465z"/>
<path style="fill:#ff8383; stroke:none;" d="M310 465L311 466L310 465z"/>
<path style="fill:#ffb0b0; stroke:none;" d="M189 466L190 467L189 466z"/>
<path style="fill:#ff5e5e; stroke:none;" d="M308 466L309 467L308 466z"/>
<path style="fill:#ff8989; stroke:none;" d="M191 467L192 468L191 467z"/>
<path style="fill:#ff3737; stroke:none;" d="M306 467L307 468L306 467z"/>
<path style="fill:#ff6262; stroke:none;" d="M193 468L194 469L193 468z"/>
<path style="fill:#ffa7a7; stroke:none;" d="M305 468L306 469L305 468z"/>
<path style="fill:#ff3737; stroke:none;" d="M195 469L196 470L195 469z"/>
<path style="fill:#ff8282; stroke:none;" d="M303 469L304 470L303 469z"/>
<path style="fill:#ffa7a7; stroke:none;" d="M196 470L197 471L196 470z"/>
<path style="fill:#ff5d5d; stroke:none;" d="M301 470L302 471L301 470z"/>
<path style="fill:#ff8080; stroke:none;" d="M198 471L199 472L198 471z"/>
<path style="fill:#ff3737; stroke:none;" d="M299 471L300 472L299 471z"/>
<path style="fill:#ff5959; stroke:none;" d="M200 472L201 473L200 472z"/>
<path style="fill:#ffa5a5; stroke:none;" d="M298 472L299 473L298 472z"/>
<path style="fill:#ffc8c8; stroke:none;" d="M201 473L202 474L201 473z"/>
<path style="fill:#ff8181; stroke:none;" d="M296 473L297 474L296 473z"/>
<path style="fill:#ff9e9e; stroke:none;" d="M203 474L204 475L203 474z"/>
<path style="fill:#ff5c5c; stroke:none;" d="M294 474L295 475L294 474z"/>
<path style="fill:#ff7777; stroke:none;" d="M205 475L206 476L205 475z"/>
<path style="fill:#ff3737; stroke:none;" d="M292 475L293 476L292 475z"/>
<path style="fill:#ff5050; stroke:none;" d="M207 476L208 477L207 476z"/>
<path style="fill:#ffa4a4; stroke:none;" d="M291 476L292 477L291 476z"/>
<path style="fill:#ffc0c0; stroke:none;" d="M208 477L209 478L208 477z"/>
<path style="fill:#ff7f7f; stroke:none;" d="M289 477L290 478L289 477z"/>
<path style="fill:#ff9595; stroke:none;" d="M210 478L211 479L210 478z"/>
<path style="fill:#ff5b5b; stroke:none;" d="M287 478L288 479L287 478z"/>
<path style="fill:#ff6e6e; stroke:none;" d="M212 479L213 480L212 479z"/>
<path style="fill:#ffc8c8; stroke:none;" d="M286 479L287 480L286 479z"/>
<path style="fill:#ff4343; stroke:none;" d="M214 480L215 481L214 480z"/>
<path style="fill:#ffa3a3; stroke:none;" d="M284 480L285 481L284 480z"/>
<path style="fill:#ffb3b3; stroke:none;" d="M215 481L216 482L215 481z"/>
<path style="fill:#ff7e7e; stroke:none;" d="M282 481L283 482L282 481z"/>
<path style="fill:#ff8c8c; stroke:none;" d="M217 482L218 483L217 482z"/>
<path style="fill:#ff5959; stroke:none;" d="M280 482L281 483L280 482z"/>
<path style="fill:#ff6565; stroke:none;" d="M219 483L220 484L219 483z"/>
<path style="fill:#ffc8c8; stroke:none;" d="M279 483L280 484L279 483z"/>
<path style="fill:#ff3b3b; stroke:none;" d="M221 484L222 485L221 484z"/>
<path style="fill:#ffa2a2; stroke:none;" d="M277 484L278 485L277 484z"/>
<path style="fill:#ffaaaa; stroke:none;" d="M222 485L223 486L222 485z"/>
<path style="fill:#ff7d7d; stroke:none;" d="M275 485L276 486L275 485z"/>
<path style="fill:#ff8383; stroke:none;" d="M224 486L225 487L224 486z"/>
<path style="fill:#ff5858; stroke:none;" d="M273 486L274 487L273 486z"/>
<path style="fill:#ff5c5c; stroke:none;" d="M226 487L227 488L226 487z"/>
<path style="fill:#ffc8c8; stroke:none;" d="M272 487L273 488L272 487M227 488L228 489L227 488z"/>
<path style="fill:#ffa1a1; stroke:none;" d="M270 488L271 489L270 488M229 489L230 490L229 489z"/>
<path style="fill:#ff7c7c; stroke:none;" d="M268 489L269 490L268 489z"/>
<path style="fill:#ff7a7a; stroke:none;" d="M231 490L232 491L231 490z"/>
<path style="fill:#ff5757; stroke:none;" d="M266 490L267 491L266 490z"/>
<path style="fill:#ff5353; stroke:none;" d="M233 491L234 492L233 491z"/>
<path style="fill:#ffc8c8; stroke:none;" d="M265 491L266 492L265 491z"/>
<path style="fill:#ffc4c4; stroke:none;" d="M234 492L235 493L234 492z"/>
<path style="fill:#ffa0a0; stroke:none;" d="M263 492L264 493L263 492z"/>
<path style="fill:#ff9898; stroke:none;" d="M236 493L237 494L236 493z"/>
<path style="fill:#ff7b7b; stroke:none;" d="M261 493L262 494L261 493z"/>
<path style="fill:#ff7171; stroke:none;" d="M238 494L239 495L238 494z"/>
<path style="fill:#ff5656; stroke:none;" d="M259 494L260 495L259 494z"/>
<path style="fill:#ff4a4a; stroke:none;" d="M240 495L241 496L240 495z"/>
<path style="fill:#ffc4c4; stroke:none;" d="M258 495L259 496L258 495z"/>
<path style="fill:#ffbcbc; stroke:none;" d="M241 496L242 497L241 496z"/>
<path style="fill:#ff9f9f; stroke:none;" d="M256 496L257 497L256 496z"/>
<path style="fill:#ff8c8c; stroke:none;" d="M243 497L244 498L243 497z"/>
<path style="fill:#ff5050; stroke:none;" d="M254 497L255 498L254 497z"/>
<path style="fill:#ff4646; stroke:none;" d="M245.667 498.333C245.222 498.778 246.278 498.722 246.333 498.667C246.778 498.222 245.722 498.278 245.667 498.333z"/>
<path style="fill:#ff4e4e; stroke:none;" d="M253 498L254 499L253 498z"/>
</svg>
